 <svg version="1.0" xmlns="http://www.w3.org/2000/svg" width="100.000000pt" height="40.000000pt" viewBox="0 0 700.000000 328.000000" preserveAspectRatio="xMidYMid meet">
<metadata>
Created by potrace 1.12, written by Peter Selinger 2001-2015
</metadata>
<g transform="translate(0.000000,328.000000) scale(0.100000,-0.100000)" fill="#000000" stroke="none">
<path d="M2404 3058 c-16 -13 -38 -34 -49 -47 -19 -24 -74 -129 -75 -143 0 -4
-18 -46 -40 -93 -22 -47 -40 -90 -40 -96 0 -5 -4 -9 -10 -9 -5 0 -10 -10 -10
-23 0 -13 -4 -27 -9 -33 -10 -11 -71 -147 -111 -249 -56 -140 -72 -181 -89
-220 -10 -22 -23 -54 -30 -72 -18 -44 -52 -73 -113 -95 -58 -21 -225 -59 -273
-62 -16 -1 -54 -6 -82 -10 -72 -11 -188 9 -236 40 -42 27 -70 25 -88 -7 -14
-27 23 -87 59 -95 15 -3 38 -10 52 -15 32 -12 215 -15 300 -5 36 4 103 19 150
32 157 45 150 44 150 26 0 -10 -13 -42 -30 -73 -16 -31 -38 -80 -50 -110 -28
-74 -29 -76 -102 -229 -36 -74 -71 -151 -78 -170 -8 -19 -22 -48 -33 -63 -17
-24 -25 -28 -51 -23 -96 18 -167 27 -315 42 -136 13 -188 13 -315 4 -310 -24
-506 -90 -626 -212 -74 -76 -122 -168 -127 -248 -2 -30 -8 -73 -13 -95 -11
-45 -9 -77 8 -118 7 -16 12 -37 12 -47 0 -27 29 -97 59 -145 14 -22 32 -54 41
-71 20 -39 78 -91 132 -121 22 -13 46 -27 52 -31 48 -36 240 -40 326 -6 98 39
268 152 345 229 149 150 376 490 440 660 10 24 24 50 32 56 16 14 190 6 205
-9 15 -15 3 -41 -52 -112 -28 -36 -62 -82 -76 -103 -13 -20 -51 -56 -84 -80
-41 -29 -63 -53 -71 -75 -6 -18 -9 -34 -7 -35 1 -1 13 -8 26 -15 13 -7 31 -10
40 -7 15 5 86 94 117 145 6 9 36 46 68 82 31 36 57 70 57 76 0 21 51 87 80
103 36 20 93 12 98 -14 2 -9 -14 -33 -35 -54 -21 -21 -65 -71 -97 -111 -46
-57 -60 -82 -63 -116 -7 -55 8 -81 53 -96 32 -11 39 -10 68 10 17 13 50 45 74
71 44 49 76 61 99 38 15 -15 58 2 100 39 17 15 41 35 54 46 13 10 34 28 46 38
32 30 48 13 24 -25 -10 -18 -22 -43 -26 -57 -4 -14 -18 -48 -32 -77 -13 -29
-25 -65 -26 -80 -2 -22 3 -28 32 -37 31 -9 36 -7 60 21 14 17 34 33 44 36 9 4
17 11 17 16 0 6 -7 8 -17 4 -13 -5 -15 -2 -8 18 5 13 9 47 9 76 1 28 4 55 9
59 4 4 7 17 7 30 0 12 7 24 15 28 8 3 15 11 15 19 0 7 14 26 30 42 24 23 33
26 42 17 10 -10 9 -19 -5 -44 -25 -43 -8 -54 37 -23 20 14 41 25 46 25 17 0
10 -34 -15 -75 -14 -22 -25 -50 -25 -62 0 -12 -4 -25 -10 -28 -17 -10 -11 -67
8 -81 29 -23 49 -16 113 39 95 81 91 79 123 64 17 -7 29 -22 33 -39 7 -36 36
-37 68 -2 14 15 25 31 25 35 0 5 16 24 35 43 38 38 47 31 16 -12 -10 -15 -21
-39 -25 -54 -3 -16 -9 -39 -12 -53 -5 -20 -2 -25 19 -30 41 -11 64 10 82 72 9
32 24 70 35 84 22 31 66 141 74 186 4 27 1 36 -18 49 -22 14 -27 14 -57 -1
-34 -18 -129 -108 -129 -123 0 -12 -80 -55 -88 -48 -3 4 -1 16 6 26 15 24 15
47 2 55 -21 13 -93 -21 -78 -37 11 -12 -127 -136 -139 -125 -8 9 25 69 67 122
57 72 73 104 66 131 -8 32 -35 31 -111 -6 -79 -39 -123 -48 -131 -27 -5 14 35
89 55 101 11 7 81 111 99 146 7 14 22 41 33 60 12 19 37 67 57 105 19 39 45
83 56 100 12 16 26 39 32 50 104 194 105 197 80 230 -13 17 -15 18 -47 2 -19
-9 -43 -28 -54 -42 -38 -51 -180 -314 -229 -425 -6 -14 -21 -39 -33 -56 -13
-17 -23 -34 -23 -37 0 -14 -67 -115 -109 -164 -50 -59 -66 -63 -166 -40 -46
11 -50 15 -53 44 -4 39 -28 50 -56 25 -40 -37 -62 -42 -136 -36 -49 5 -70 11
-70 20 0 8 4 14 9 14 4 0 25 26 46 58 21 31 46 66 55 77 21 24 120 195 142
245 34 78 38 93 38 130 0 30 -5 42 -21 50 -48 26 -98 -21 -137 -128 -10 -24
-27 -51 -39 -59 -26 -18 -72 -23 -95 -12 -10 5 -27 14 -39 20 -17 8 -27 5 -55
-16 -40 -30 -39 -28 -17 -61 19 -30 82 -64 118 -64 14 0 28 -6 30 -13 7 -16
-80 -193 -109 -222 -22 -22 -25 -22 -77 -9 -29 8 -68 14 -85 14 -48 0 -59 20
-31 61 26 39 73 136 93 192 7 21 20 48 29 60 8 12 15 31 15 42 0 12 4 25 9 30
22 23 111 214 111 238 0 16 108 161 130 176 14 9 31 21 38 28 7 7 18 13 23 13
42 0 309 259 309 299 0 6 4 11 9 11 5 0 19 19 31 43 12 23 27 47 34 52 11 9
24 42 66 170 19 56 17 257 -3 326 -9 30 -17 71 -19 93 -2 30 -7 40 -26 47 -36
14 -57 11 -88 -13z m77 -228 c12 -39 12 -42 -27 -220 -14 -61 -107 -228 -160
-285 -30 -33 -66 -74 -80 -91 -13 -17 -49 -51 -80 -75 -31 -24 -68 -54 -82
-66 -36 -33 -52 -31 -32 5 7 14 73 153 120 257 5 11 19 44 30 74 12 30 30 67
41 82 10 15 19 35 19 46 0 30 72 162 92 169 10 3 18 12 18 20 0 38 74 124 106
124 18 0 26 -9 35 -40z m-1326 -1655 c188 -10 269 -17 287 -26 9 -5 29 -9 43
-9 23 0 25 -3 19 -22 -6 -20 -71 -126 -121 -198 -10 -14 -33 -53 -51 -88 -31
-60 -107 -172 -161 -238 -150 -181 -204 -231 -347 -311 -129 -73 -215 -88
-325 -57 -58 16 -132 69 -172 121 -11 16 -33 42 -48 58 -31 33 -52 91 -75 200
-24 119 -19 160 28 255 79 159 174 225 413 288 70 19 300 40 370 35 17 -1 80
-5 140 -8z m1099 -124 c17 -19 16 -21 -21 -60 -52 -55 -113 -78 -113 -43 0 35
32 82 68 102 46 24 45 24 66 1z m-184 -7 c0 -11 -52 -100 -71 -120 -10 -11
-19 -24 -19 -30 -1 -26 -112 -120 -130 -109 -16 10 -12 22 25 75 19 27 44 69
55 94 16 33 33 51 68 70 46 24 72 32 72 20z"></path>
<path d="M4603 2443 c-24 -5 -75 -63 -107 -123 -11 -19 -40 -67 -65 -107 -124
-195 -157 -247 -164 -262 -4 -9 -21 -36 -37 -61 -16 -25 -39 -63 -50 -86 -12
-23 -29 -50 -38 -60 -9 -10 -24 -32 -32 -49 -8 -16 -31 -55 -50 -85 -20 -30
-51 -86 -70 -123 -19 -38 -44 -74 -55 -80 -40 -23 -114 -44 -127 -36 -7 5 -27
9 -44 9 -23 0 -34 -6 -42 -25 -28 -61 -15 -72 84 -77 l51 -3 -23 -45 c-24 -47
-55 -106 -80 -152 -8 -16 -23 -32 -32 -36 -40 -21 -145 -35 -211 -28 -60 5
-70 4 -86 -14 -15 -16 -17 -26 -9 -48 8 -23 17 -28 63 -35 43 -7 62 -6 88 7
19 9 50 16 69 16 32 0 35 -2 28 -22 -15 -49 -23 -65 -48 -95 -14 -16 -23 -33
-20 -35 3 -3 -4 -21 -15 -41 -24 -43 -66 -176 -75 -238 -7 -49 8 -109 24 -93
9 10 41 95 66 179 8 28 19 58 24 67 6 10 10 22 10 27 0 5 16 44 35 85 19 42
35 82 35 89 0 6 13 33 29 58 l29 45 113 22 c119 23 172 27 226 16 49 -9 76 2
96 39 15 28 17 39 8 56 -15 28 -14 28 -221 -10 -30 -6 -71 -12 -90 -15 -19 -2
-45 -6 -57 -9 -29 -7 -29 4 1 48 13 19 27 45 31 56 12 38 147 168 182 176 18
3 35 11 38 16 4 5 13 9 22 9 8 0 51 18 95 40 92 46 213 150 284 243 56 74 118
201 140 288 9 35 20 69 24 74 10 14 20 100 26 235 2 63 7 126 10 139 3 14 -2
31 -12 42 -17 19 -27 20 -71 12z m4 -210 c-8 -91 -23 -163 -46 -223 -12 -30
-21 -65 -21 -77 0 -12 -4 -25 -10 -28 -5 -3 -10 -13 -10 -21 0 -13 -35 -76
-93 -169 -11 -18 -98 -115 -122 -137 -29 -26 -151 -98 -183 -109 -20 -6 -48
-18 -60 -26 -13 -8 -26 -12 -29 -9 -9 9 19 69 47 101 14 17 46 62 69 100 24
39 60 95 82 125 21 30 48 75 60 100 12 25 34 63 50 85 54 74 99 144 99 155 0
29 138 188 163 190 5 0 7 -26 4 -57z"></path>
<path d="M4275 1610 c3 -5 8 -10 11 -10 2 0 4 5 4 10 0 6 -5 10 -11 10 -5 0
-7 -4 -4 -10z"></path>
<path d="M4156 1551 c-4 -5 -2 -12 3 -15 5 -4 12 -2 15 3 4 5 2 12 -3 15 -5 4
-12 2 -15 -3z"></path>
<path d="M2350 1800 c0 -5 5 -10 10 -10 6 0 10 5 10 10 0 6 -4 10 -10 10 -5 0
-10 -4 -10 -10z"></path>
<path d="M6308 1596 c-25 -14 -159 -114 -168 -127 -3 -3 -50 -55 -106 -115
-156 -168 -258 -293 -280 -345 -17 -37 -104 -117 -136 -124 -16 -4 -28 -11
-28 -16 0 -5 -8 -9 -18 -9 -10 0 -26 -6 -37 -14 -57 -39 -117 -23 -130 34 -6
29 -19 38 -29 21 -3 -4 -19 -11 -35 -14 -17 -4 -35 -17 -43 -30 -7 -13 -25
-47 -40 -75 -15 -28 -32 -53 -38 -57 -17 -10 -12 -67 8 -81 20 -16 68 -18 77
-4 10 16 82 50 107 50 21 0 110 44 216 107 42 25 52 27 52 13 0 -5 -7 -10 -15
-10 -9 0 -20 -10 -26 -22 -5 -13 -16 -34 -24 -48 -22 -37 -19 -77 5 -85 27 -9
44 6 70 61 29 59 59 78 160 97 151 30 152 29 144 -32 -5 -41 -3 -52 15 -70 11
-11 27 -21 35 -21 8 0 46 34 85 76 59 63 71 81 71 110 0 32 -2 34 -33 34 -21
0 -36 7 -45 20 -13 21 -75 29 -86 11 -7 -11 -91 -33 -143 -37 -36 -2 -43 0
-43 15 0 21 29 62 80 111 41 40 90 104 90 118 0 5 17 25 38 44 21 19 49 50 62
69 36 50 175 206 211 236 37 32 53 67 39 92 -14 26 -34 31 -62 17z m-304 -391
c-7 -16 -24 -21 -24 -6 0 8 7 13 27 20 1 1 0 -6 -3 -14z m-138 -212 c-10 -10
-19 5 -10 18 6 11 8 11 12 0 2 -7 1 -15 -2 -18z m-536 -233 c0 -5 -5 -10 -11
-10 -5 0 -7 5 -4 10 3 6 8 10 11 10 2 0 4 -4 4 -10z"></path>
<path d="M5506 1409 c-26 -23 -67 -71 -91 -108 -117 -176 -188 -276 -196 -279
-5 -2 -9 -9 -9 -16 0 -18 -107 -121 -161 -155 -62 -39 -88 -46 -95 -28 -3 9
-16 18 -30 21 -15 4 -24 14 -24 26 0 16 -7 19 -37 18 -21 0 -42 -4 -48 -8 -5
-5 -26 -12 -45 -18 -19 -5 -43 -13 -52 -17 -14 -5 -18 -2 -18 12 0 46 -54 57
-104 21 -17 -11 -49 -43 -71 -70 -22 -27 -55 -66 -73 -88 -26 -30 -33 -46 -30
-72 2 -28 7 -33 28 -33 16 0 29 8 36 24 7 13 16 26 21 30 5 3 19 21 32 39 13
18 26 31 29 28 2 -3 -1 -12 -8 -21 -16 -19 -5 -61 18 -74 15 -8 30 1 83 49 35
32 67 56 72 53 5 -3 4 -10 -2 -16 -17 -17 -13 -36 15 -62 l25 -23 52 24 c29
13 66 24 83 24 31 0 94 18 104 29 3 3 20 17 39 30 l33 23 -7 -23 c-4 -13 -20
-46 -36 -73 -41 -68 -42 -90 -3 -94 25 -2 35 3 56 30 13 18 32 58 42 90 9 31
26 64 37 74 10 9 19 21 19 25 0 19 110 176 198 284 5 6 17 24 27 40 23 37 105
135 162 194 50 51 57 90 21 115 -32 23 -40 21 -92 -25z"></path>
<path d="M6248 1160 c-9 -6 -26 -30 -38 -54 -16 -35 -19 -49 -11 -65 26 -48
87 -32 114 31 31 70 -7 121 -65 88z"></path>
<path d="M4039 941 c-13 -10 -37 -25 -54 -34 -16 -8 -62 -48 -102 -89 -147
-150 -182 -210 -147 -250 30 -33 74 -20 163 49 37 28 45 30 72 21 27 -9 39 -6
104 28 l74 39 21 -23 c16 -17 28 -21 48 -16 15 4 31 11 36 15 18 17 36 9 36
-15 0 -38 18 -76 36 -76 29 0 75 33 68 50 -13 27 -7 58 26 128 17 38 30 78 28
88 -5 28 -63 41 -86 20 -23 -20 -41 -20 -63 0 -20 18 -14 21 -154 -73 -27 -18
-53 -33 -58 -33 -5 0 -7 18 -4 40 4 30 2 40 -9 40 -10 0 -9 7 5 33 14 23 17
38 10 55 -10 27 -19 28 -50 3z m-144 -227 c-50 -44 -69 -54 -59 -31 7 17 97
87 104 81 3 -4 -17 -26 -45 -50z"></path>
<path d="M6619 940 c-24 -9 -53 -21 -64 -27 -11 -6 -39 -19 -61 -28 -40 -16
-43 -16 -84 5 -36 18 -46 20 -71 10 -32 -14 -109 -84 -109 -100 0 -31 27 -89
43 -94 27 -7 107 23 107 41 0 12 10 14 58 8 55 -6 58 -5 95 28 20 19 58 45 83
57 l46 21 24 -22 c21 -20 24 -31 23 -81 -2 -64 8 -83 49 -91 45 -9 52 6 46 98
-5 86 -21 142 -49 165 -28 24 -89 28 -136 10z"></path>
<path d="M6950 620 c0 -5 5 -10 10 -10 6 0 10 5 10 10 0 6 -4 10 -10 10 -5 0
-10 -4 -10 -10z"></path>
</g>
</svg>