<svg width="566" height="221" viewBox="0 0 566 221" fill="none" xmlns="http://www.w3.org/2000/svg">
<path d="M28.8603 104.865C28.4093 105.004 27.9984 105.101 27.6275 105.154C27.2552 105.166 26.9422 105.094 26.6886 104.937C26.4763 104.778 26.2841 104.599 26.1118 104.398C25.9795 104.154 25.8666 103.868 25.7729 103.54C25.7193 103.17 25.6657 102.8 25.6121 102.429C25.5585 102.059 25.5449 101.646 25.5712 101.19C25.5963 100.693 25.6026 100.259 25.5904 99.8871C25.6195 99.514 25.6479 99.1203 25.6757 98.7059C25.7021 98.2502 25.7105 97.8777 25.701 97.5886C25.7197 95.6446 25.5211 94.0179 25.1053 92.7084C24.6894 91.399 24.062 89.9517 23.2229 88.3667C23.0825 87.8752 23.0082 87.5055 23 87.2576C23.0318 86.9672 23.0809 86.5727 23.1473 86.0744C23.2551 85.5747 23.3049 85.2009 23.2967 84.9531C23.2991 82.5134 23.7326 81.2174 24.5972 81.0649C25.0522 81.05 25.7283 81.4619 26.6256 82.3007C27.5229 83.1396 28.2383 83.4882 28.772 83.3466C28.8547 83.3439 29.5538 83.1968 30.8694 82.9055C32.1849 82.6142 33.0695 82.4404 33.5231 82.3841C34.0181 82.3265 34.7814 82.2394 35.8128 82.1228C36.8442 82.0062 37.7542 81.9763 38.5429 82.0331C39.3729 82.0885 40.1636 82.2072 40.915 82.3892C42.1682 82.7202 43.2309 83.5536 44.1032 84.8894C45.0154 86.1826 45.5174 87.5926 45.6092 89.1194C45.7423 90.6449 45.439 92.1228 44.6994 93.5529C43.3197 95.6657 41.1313 97.743 38.1343 99.7849C35.1786 101.825 32.0873 103.519 28.8603 104.865ZM39.0875 85.3644C37.837 85.116 36.5106 85.0769 35.1083 85.2471C33.7473 85.4159 32.5145 85.7045 31.4099 86.1129C30.3039 86.48 29.4137 87.1089 28.739 87.9993C28.0631 88.8485 27.7869 89.8913 27.9104 91.1277C27.9613 91.4155 28.0218 91.9923 28.0917 92.8584C28.2017 93.6817 28.2835 94.2786 28.3371 94.6489C28.3894 94.978 28.4484 95.5136 28.5143 96.2557C28.6216 96.9964 28.724 97.5926 28.8217 98.0442C28.9595 98.4532 29.0992 98.9241 29.241 99.457C29.3828 99.9898 29.5432 100.46 29.7223 100.868C33.0612 99.1453 36.7396 96.4195 40.7577 92.6901C41.5618 91.9608 42.0496 91.0558 42.221 89.9751C42.3911 88.8531 42.1923 87.8466 41.6246 86.9556C41.0569 86.0646 40.2112 85.5342 39.0875 85.3644Z" fill="#040F16"/>
<path d="M70.4704 102.505C69.5699 102.824 68.7213 102.832 67.9244 102.527C67.169 102.221 66.719 101.76 66.5744 101.145C66.4299 100.529 66.6363 99.8817 67.1936 99.2019C67.6723 98.6486 68.3853 98.2944 69.3326 98.1392C69.8263 98.0403 71.5141 97.7367 74.3961 97.2285C77.2766 96.679 79.4967 96.1925 81.0564 95.7691C81.7128 95.5822 82.6533 95.2205 83.8779 94.684C85.1011 94.1063 86.0844 93.7845 86.8276 93.7188C87.4867 93.6144 88.0733 93.8225 88.5874 94.3432C89.1001 94.8225 89.3867 95.3506 89.4471 95.9275C89.458 96.2579 89.3235 96.5724 89.0434 96.8711C88.762 97.1284 88.3338 97.3286 87.7588 97.4715C82.0031 98.7358 76.2403 100.414 70.4704 102.505ZM87.1552 86.6995C87.8571 86.635 88.4823 86.7592 89.031 87.072C89.5796 87.3847 89.8628 87.8096 89.8805 88.3465C89.9104 89.2552 89.2263 89.8565 87.828 90.1506C87.4157 90.2055 86.7573 90.3305 85.8527 90.5256C84.9468 90.6795 84.3704 90.7811 84.1235 90.8306C83.8767 90.88 83.4244 90.9776 82.7667 91.1233C82.1503 91.2676 81.6173 91.4298 81.1677 91.61C80.7168 91.7488 80.1224 91.9338 79.3847 92.1648C78.6469 92.3957 77.8278 92.6708 76.9273 92.9898C74.5526 93.8121 72.9605 94.5053 72.1508 95.0695C70.4103 96.2844 69.5761 97.9865 69.6482 100.176C69.715 102.199 69.6378 103.628 69.4169 104.463C68.0864 104.3 67.2332 103.542 66.8573 102.19C66.3865 100.469 65.872 99.3073 65.3138 98.7054C65.2284 98.6256 65.0581 98.4864 64.8031 98.2881C64.5895 98.0884 64.4613 97.9685 64.4186 97.9286C64.3759 97.8886 64.2691 97.7888 64.0982 97.629C63.9686 97.4679 63.9032 97.3666 63.9018 97.3253C63.8991 97.2427 63.8543 97.1408 63.7675 97.0196C63.6807 96.8985 63.6573 96.8165 63.6973 96.7739C63.7359 96.6899 63.7532 96.586 63.7491 96.462C63.7864 96.3368 63.8243 96.2322 63.863 96.1482C63.9416 96.0216 64.0203 95.8949 64.0989 95.7683C64.2176 95.599 64.3569 95.429 64.5169 95.2584C64.5956 95.1318 64.7349 94.9618 64.9349 94.7485C65.1349 94.5352 65.2549 94.4072 65.2949 94.3645C65.3336 94.2805 65.4129 94.1746 65.5329 94.0466C65.6516 93.8773 65.7089 93.7307 65.7048 93.6068C65.742 93.4815 65.7987 93.3142 65.8746 93.105C65.9505 92.8958 66.0251 92.6452 66.0983 92.3534C66.4893 90.3972 66.0429 89.4195 64.7593 89.4203C63.9306 89.4062 63.3179 89.0335 62.9211 88.3023C62.5243 87.5711 62.6486 86.9468 63.2941 86.4294C63.8596 85.9973 64.3024 85.6106 64.6224 85.2693C64.9424 84.928 65.237 84.4428 65.5061 83.8138C65.8166 83.1833 65.9796 82.475 65.9951 81.6889C66.0593 79.8675 66.5789 78.672 67.554 78.1024C67.6395 78.1823 67.7463 78.2822 67.8745 78.402C68.0426 78.4792 68.1488 78.5584 68.1929 78.6396C68.2783 78.7195 68.3851 78.8194 68.5133 78.9392C68.6401 79.0177 68.7263 79.1183 68.7717 79.2408C68.8585 79.362 68.9467 79.5245 69.0362 79.7283C69.1258 79.9321 69.216 80.1565 69.3069 80.4016L70.1952 82.8533C70.6862 82.6718 71.3598 82.3809 72.2163 81.9806C73.1127 81.5377 73.8864 81.1401 74.5373 80.7879C75.2296 80.4344 76.046 80.0768 76.9865 79.7151C77.9671 79.3107 78.8062 79.0144 79.504 78.826C80.2431 78.6363 81.067 78.5059 81.9757 78.4347C82.9257 78.3621 83.7364 78.4595 84.4078 78.7269C84.9096 78.8758 85.3576 79.2745 85.7516 79.9231C84.4152 80.8354 82.0493 81.9262 78.6542 83.1955C75.299 84.4222 73.0311 85.3444 71.8506 85.9621C69.5709 87.1534 68.7856 89.0812 69.4945 91.7456C71.3892 91.4352 74.2802 90.5752 78.1677 89.1657C82.0552 87.7561 85.051 86.934 87.1552 86.6995Z" fill="#040F16"/>
<path d="M115.559 101.023C114.659 101.342 113.81 101.35 113.013 101.045C112.258 100.739 111.808 100.278 111.663 99.6629C111.519 99.0474 111.725 98.3997 112.283 97.7198C112.761 97.1666 113.474 96.8123 114.422 96.6571C114.915 96.5582 116.603 96.2547 119.485 95.7464C122.366 95.1969 124.586 94.7105 126.145 94.2871C126.802 94.1001 127.742 93.7384 128.967 93.202C130.19 92.6242 131.173 92.3025 131.917 92.2367C132.576 92.1323 133.162 92.3405 133.676 92.8611C134.189 93.3404 134.476 93.8685 134.536 94.4454C134.547 94.7759 134.412 95.0904 134.132 95.389C133.851 95.6464 133.423 95.8465 132.848 95.9895C127.092 97.2537 121.329 98.9317 115.559 101.023ZM132.244 85.2174C132.946 85.153 133.571 85.2772 134.12 85.5899C134.668 85.9027 134.952 86.3275 134.969 86.8645C134.999 87.7731 134.315 88.3745 132.917 88.6686C132.505 88.7235 131.846 88.8485 130.942 89.0436C130.036 89.1974 129.459 89.2991 129.212 89.3485C128.966 89.398 128.513 89.4955 127.856 89.6412C127.239 89.7855 126.706 89.9477 126.257 90.1279C125.806 90.2668 125.211 90.4517 124.474 90.6827C123.736 90.9137 122.917 91.1887 122.016 91.5077C119.642 92.3301 118.049 93.0233 117.24 93.5874C115.499 94.8024 114.665 96.5044 114.737 98.6935C114.804 100.717 114.727 102.146 114.506 102.981C113.175 102.818 112.322 102.06 111.946 100.708C111.475 98.9868 110.961 97.8253 110.403 97.2234C110.317 97.1435 110.147 97.0044 109.892 96.806C109.678 96.6063 109.55 96.4865 109.508 96.4465C109.465 96.4066 109.358 96.3067 109.187 96.147C109.058 95.9858 108.992 95.8846 108.991 95.8433C108.988 95.7607 108.943 95.6588 108.856 95.5376C108.77 95.4164 108.746 95.3345 108.786 95.2918C108.825 95.2078 108.842 95.1039 108.838 94.98C108.875 94.8547 108.913 94.7501 108.952 94.6661C109.031 94.5395 109.109 94.4129 109.188 94.2863C109.306 94.117 109.446 93.947 109.606 93.7763C109.684 93.6497 109.824 93.4797 110.024 93.2664C110.224 93.0531 110.344 92.9251 110.384 92.8825C110.422 92.7985 110.502 92.6925 110.622 92.5645C110.74 92.3952 110.798 92.2486 110.794 92.1247C110.831 91.9994 110.888 91.8322 110.963 91.623C111.039 91.4137 111.114 91.1632 111.187 90.8713C111.578 88.9151 111.132 87.9374 109.848 87.9383C109.02 87.9242 108.407 87.5515 108.01 86.8203C107.613 86.089 107.738 85.4647 108.383 84.9473C108.949 84.5153 109.391 84.1286 109.711 83.7873C110.031 83.446 110.326 82.9608 110.595 82.3317C110.906 81.7013 111.069 80.993 111.084 80.2069C111.148 78.3854 111.668 77.1899 112.643 76.6204C112.728 76.7003 112.835 76.8001 112.963 76.9199C113.132 76.9971 113.238 77.0763 113.282 77.1576C113.367 77.2375 113.474 77.3373 113.602 77.4571C113.729 77.5357 113.815 77.6362 113.861 77.7588C113.947 77.88 114.036 78.0424 114.125 78.2462C114.215 78.45 114.305 78.6745 114.396 78.9196L115.284 81.3713C115.775 81.1898 116.449 80.8989 117.305 80.4986C118.202 80.0556 118.975 79.6581 119.626 79.3059C120.319 78.9523 121.135 78.5947 122.075 78.233C123.056 77.8287 123.895 77.5323 124.593 77.344C125.332 77.1543 126.156 77.0238 127.065 76.9526C128.015 76.88 128.825 76.9774 129.497 77.2448C129.999 77.3937 130.446 77.7925 130.841 78.4411C129.504 79.3533 127.138 80.4441 123.743 81.7135C120.388 82.9402 118.12 83.8623 116.939 84.48C114.66 85.6714 113.874 87.5992 114.583 90.2635C116.478 89.9532 119.369 89.0932 123.257 87.6836C127.144 86.274 130.14 85.452 132.244 85.2174Z" fill="#040F16"/>
<path d="M155.655 100.698C155.426 94.9992 154.464 87.8156 152.771 79.1468C152.718 78.8177 152.709 78.5286 152.742 78.2794C152.815 77.9876 152.911 77.757 153.03 77.5877C153.147 77.3771 153.327 77.1851 153.57 77.0117C153.854 76.837 154.077 76.7056 154.24 76.6176C154.444 76.5282 154.731 76.4361 155.101 76.3412C155.469 76.2051 155.736 76.1343 155.901 76.1288C156.065 76.0821 156.333 76.0319 156.704 75.9784C157.114 75.8822 157.341 75.8334 157.382 75.8321C161.086 75.1314 164.671 75.241 168.139 76.1607C171.605 77.0392 172.616 78.8253 171.173 81.519C170.24 83.369 168.898 84.7569 167.148 85.6827C165.398 86.6086 162.901 87.4763 159.656 88.2858C158.71 88.4823 158.062 88.9171 157.711 89.5902C157.401 90.2206 157.225 91.1568 157.183 92.3986C157.203 93.0181 157.27 93.7809 157.382 94.6868C157.535 95.5501 157.663 96.2902 157.766 96.907C157.868 97.4826 157.908 98.0601 157.885 98.6397C157.863 99.2193 157.671 99.6805 157.31 100.023C156.949 100.366 156.397 100.591 155.655 100.698ZM168.137 79.8821C167.899 78.9389 167.153 78.2812 165.898 77.909C164.644 77.5367 163.296 77.4777 161.855 77.7318C160.412 77.9446 159.286 78.3331 158.477 78.8972C157.143 79.892 156.499 81.0916 156.546 82.4959C156.565 83.0742 156.643 83.5678 156.781 83.9767C156.959 84.343 157.114 84.6481 157.246 84.8918C157.418 85.0929 157.692 85.2493 158.069 85.3609C158.485 85.4299 158.798 85.4817 159.006 85.5162C159.254 85.508 159.645 85.4538 160.181 85.3535C160.716 85.2533 161.086 85.1791 161.291 85.131C161.497 85.0829 161.886 84.9667 162.46 84.7824C163.486 84.5006 164.726 83.7983 166.18 82.6755C167.633 81.5526 168.286 80.6215 168.137 79.8821Z" fill="#040F16"/>
<path d="M90.397 201.046C80.9179 201.046 73.842 199.913 69.1692 197.647C64.5631 195.314 62.1934 191.215 62.0598 185.349C61.192 187.815 60.8916 190.115 61.1587 192.248C61.4924 194.381 62.0265 196.48 62.7608 198.547C55.6181 198.747 49.6769 198.947 44.9374 199.146C40.1978 199.413 35.8922 199.513 32.0204 199.446C31.0191 194.114 30.4517 188.848 30.3182 183.649C30.2514 178.384 30.652 172.818 31.5198 166.952C35.1913 166.952 38.8627 167.319 42.5342 168.052C46.2057 168.785 49.6769 169.818 52.9479 171.152C56.2188 172.418 59.0225 173.984 61.3589 175.851L63.3616 173.751C61.0919 171.951 58.622 170.452 55.9518 169.252C53.3484 167.985 50.7116 166.919 48.0415 166.052C44.637 164.853 41.5329 163.32 38.7292 161.453C35.9923 159.587 33.8228 157.254 32.2207 154.455C30.6186 151.655 29.8175 148.322 29.8175 144.456C29.8175 139.657 30.919 135.325 33.1219 131.459C35.3248 127.526 38.9295 124.427 43.9361 122.16C49.0094 119.827 55.8183 118.661 64.3629 118.661C72.8407 118.661 79.3158 119.861 83.7884 122.26C88.2609 124.593 90.5639 128.926 90.6974 135.258C91.632 132.725 91.9324 130.359 91.5986 128.159C91.2648 125.96 90.7308 123.627 89.9965 121.161C94.8028 121.094 98.8081 121.027 102.012 120.961C105.216 120.827 108.054 120.694 110.523 120.561C112.993 120.427 115.497 120.361 118.033 120.361C119.035 125.16 119.569 130.359 119.635 135.958C119.769 141.49 119.402 147.156 118.534 152.955C114.729 152.888 111.324 152.555 108.321 151.955C105.383 151.288 102.646 150.322 100.11 149.056C97.5731 147.789 94.9697 146.223 92.2995 144.356L90.4972 146.656C93.0338 148.522 95.6372 150.122 98.3074 151.455C100.978 152.722 103.481 153.888 105.817 154.954C109.288 156.488 112.226 158.187 114.629 160.054C117.032 161.92 118.868 164.186 120.136 166.852C121.471 169.518 122.139 172.851 122.139 176.851C122.139 182.383 121.171 186.782 119.235 190.048C117.366 193.314 114.862 195.747 111.725 197.347C108.588 198.88 105.15 199.88 101.411 200.346C97.74 200.813 94.0685 201.046 90.397 201.046Z" fill="#040F16"/>
<path d="M135.616 199.546C135.015 198.147 134.548 196.38 134.214 194.247C133.88 192.114 133.68 189.915 133.613 187.649C133.546 185.316 133.613 183.083 133.813 180.95C134.08 178.817 134.448 177.05 134.915 175.651C135.916 175.251 136.884 174.584 137.819 173.651C138.82 172.651 139.654 171.085 140.322 168.952C140.989 166.752 141.323 163.686 141.323 159.754C141.323 155.488 140.923 152.288 140.122 150.155C139.387 147.956 138.486 146.489 137.418 145.756C136.417 144.956 135.516 144.556 134.715 144.556C134.114 143.357 133.68 141.724 133.413 139.657C133.146 137.591 133.012 135.391 133.012 133.058C133.079 130.659 133.279 128.359 133.613 126.16C133.947 123.893 134.448 121.96 135.115 120.361C140.055 120.561 144.494 120.594 148.433 120.461C152.438 120.327 156.41 120.127 160.348 119.861C164.353 119.594 168.692 119.361 173.365 119.161C178.105 118.894 183.679 118.761 190.087 118.761C199.5 118.761 207.443 119.594 213.918 121.261C220.394 122.86 225.3 125.826 228.638 130.159C232.042 134.425 233.744 140.524 233.744 148.456C233.744 155.321 232.443 160.82 229.839 164.953C227.303 169.085 223.631 172.085 218.825 173.951C214.019 175.751 208.244 176.651 201.502 176.651C197.23 176.651 193.825 176.317 191.289 175.651C188.752 174.918 186.416 173.318 184.28 170.852L182.177 172.751C183.912 174.818 186.015 176.417 188.485 177.55C190.955 178.617 194.026 179.217 197.697 179.35C198.298 181.216 198.665 183.349 198.799 185.749C198.999 188.148 198.932 190.548 198.598 192.948C198.331 195.347 197.831 197.513 197.096 199.446C193.825 199.18 189.286 198.847 183.479 198.447C177.738 198.047 171.162 197.88 163.753 197.947C160.014 197.947 156.343 198.047 152.738 198.247C149.133 198.447 145.829 198.647 142.825 198.847C139.888 199.113 137.485 199.346 135.616 199.546ZM182.177 155.454H188.285V148.756H182.177V155.454Z" fill="#040F16"/>
<path d="M355.784 199.546C355.183 198.147 354.715 196.38 354.382 194.247C354.048 192.114 353.848 189.915 353.781 187.649C353.714 185.316 353.781 183.083 353.981 180.95C354.248 178.817 354.615 177.05 355.083 175.651C356.084 175.251 357.052 174.584 357.986 173.651C358.988 172.651 359.822 171.085 360.49 168.952C361.157 166.752 361.491 163.686 361.491 159.754C361.491 155.488 361.09 152.288 360.289 150.155C359.555 147.956 358.654 146.489 357.586 145.756C356.585 144.956 355.683 144.556 354.882 144.556C354.282 143.357 353.848 141.724 353.581 139.657C353.314 137.591 353.18 135.391 353.18 133.058C353.247 130.659 353.447 128.359 353.781 126.16C354.115 123.893 354.615 121.96 355.283 120.361C360.223 120.561 364.662 120.594 368.6 120.461C372.606 120.327 376.577 120.127 380.516 119.861C384.521 119.594 388.86 119.361 393.533 119.161C398.273 118.894 403.847 118.761 410.255 118.761C419.667 118.761 427.678 119.594 434.287 121.261C440.962 122.86 446.069 125.726 449.607 129.859C453.145 133.992 454.88 139.857 454.813 147.456C454.813 151.322 454.179 154.821 452.911 157.954C451.709 161.02 449.94 163.62 447.604 165.753C448.939 168.419 450.474 170.552 452.21 172.151C453.946 173.751 455.581 174.918 457.116 175.651C457.584 177.05 457.884 178.817 458.018 180.95C458.218 183.083 458.285 185.316 458.218 187.649C458.218 189.915 458.051 192.114 457.717 194.247C457.383 196.38 456.95 198.147 456.416 199.546C454.947 199.346 453.278 199.113 451.409 198.847C449.607 198.647 447.437 198.447 444.9 198.247C442.364 198.047 439.226 197.947 435.488 197.947C430.482 197.947 426.343 198.047 423.072 198.247C419.868 198.447 417.164 198.647 414.961 198.847C412.825 199.113 410.889 199.346 409.154 199.546C409.888 194.147 410.222 189.415 410.155 185.349C410.155 181.283 409.587 177.717 408.453 174.651C407.318 171.585 405.382 168.852 402.645 166.452V175.651L406.25 175.751C406.851 178.017 407.184 180.65 407.251 183.649C407.385 186.582 407.284 189.482 406.951 192.348C406.684 195.147 406.216 197.513 405.549 199.446C402.745 199.18 399.074 198.847 394.534 198.447C389.995 198.047 385.055 197.88 379.715 197.947C375.042 198.013 370.57 198.213 366.297 198.547C362.025 198.947 358.52 199.28 355.784 199.546ZM402.244 155.754H408.352V148.856H402.244V155.754Z" fill="#040F16"/>
<path d="M471.876 199.546C471.342 198.147 470.909 196.38 470.575 194.247C470.241 192.114 470.041 189.915 469.974 187.649C469.974 185.316 470.041 183.083 470.174 180.95C470.374 178.817 470.708 177.05 471.176 175.651C472.244 175.251 473.278 174.584 474.28 173.651C475.281 172.651 476.115 171.085 476.783 168.952C477.45 166.752 477.784 163.686 477.784 159.754C477.784 155.488 477.384 152.288 476.583 150.155C475.848 147.956 474.947 146.489 473.879 145.756C472.878 144.956 471.977 144.556 471.176 144.556C470.575 143.357 470.141 141.724 469.874 139.657C469.607 137.591 469.473 135.391 469.473 133.058C469.54 130.659 469.74 128.359 470.074 126.16C470.408 123.893 470.909 121.96 471.576 120.361C472.644 120.427 474.38 120.527 476.783 120.661C479.253 120.727 482.09 120.827 485.294 120.961C488.565 121.027 491.97 121.094 495.507 121.161C499.045 121.227 502.517 121.294 505.921 121.361C509.392 121.361 512.496 121.361 515.233 121.361C522.243 121.361 530.019 121.261 538.564 121.061C547.175 120.861 555.72 120.594 564.198 120.261C564.531 121.527 564.832 123.36 565.099 125.76C565.366 128.159 565.566 130.825 565.7 133.758C565.833 136.691 565.9 139.657 565.9 142.657C565.9 145.656 565.8 148.422 565.599 150.955C565.399 153.421 565.099 155.354 564.698 156.754C561.561 157.154 558.09 157.421 554.285 157.554C550.48 157.687 546.608 157.687 542.669 157.554C538.798 157.421 535.126 157.154 531.655 156.754C530.854 153.621 530.854 150.522 531.655 147.456H520.04V151.655H529.352V165.553H519.94V169.852H531.655C530.854 166.719 530.854 163.586 531.655 160.453C537.262 160.12 543.003 159.954 548.878 159.954C554.752 159.954 560.226 160.12 565.299 160.453C565.499 161.653 565.666 163.586 565.8 166.252C565.933 168.852 566 171.818 566 175.151C566 178.417 565.933 181.716 565.8 185.049C565.733 188.382 565.599 191.348 565.399 193.947C565.199 196.547 564.932 198.413 564.598 199.546C557.589 199.413 549.979 199.113 541.768 198.647C533.557 198.247 525.514 198.047 517.637 198.047C513.364 198.047 508.858 198.08 504.119 198.147C499.446 198.28 494.907 198.413 490.501 198.547C486.162 198.747 482.324 198.913 478.986 199.046C475.715 199.246 473.345 199.413 471.876 199.546Z" fill="#040F16"/>
<g filter="url(#filter0_dd_1925_6684)">
<path d="M411.942 145.393C427.983 137.236 424.846 135.79 421.968 117.861C427.226 132.532 427.649 139.275 447.366 134.516C429.32 142.674 434.333 151.511 439.68 175.984C433.998 158.989 431.659 143.014 411.942 145.393Z" fill="#FFDC27"/>
<path d="M24.0254 184.87C37.7272 177.902 35.0473 176.667 32.589 161.353C37.0807 173.885 37.4418 179.644 54.2836 175.58C38.869 182.548 43.1509 190.096 47.7181 211C42.8654 196.483 40.8672 182.838 24.0254 184.87Z" fill="#FFDC27"/>
</g>
<g filter="url(#filter1_dd_1925_6684)">
<path d="M300.053 74.0734C324.912 76.8355 340.893 103.365 342.497 154.24L324.249 185.862L290.208 195.835L256.377 182.76L245.604 146.624C248.464 96.5409 275.193 71.3113 300.053 74.0734Z" fill="url(#paint0_radial_1925_6684)" shape-rendering="crispEdges"/>
<path d="M300.053 74.0734C324.912 76.8355 340.893 103.365 342.497 154.24L324.249 185.862L290.208 195.835L256.377 182.76L245.604 146.624C248.464 96.5409 275.193 71.3113 300.053 74.0734Z" fill="#FFDC27" style="mix-blend-mode:hard-light" shape-rendering="crispEdges"/>
<path d="M300.053 74.0734C324.912 76.8355 340.893 103.365 342.497 154.24L324.249 185.862L290.208 195.835L256.377 182.76L245.604 146.624C248.464 96.5409 275.193 71.3113 300.053 74.0734Z" fill="url(#paint1_radial_1925_6684)" fill-opacity="0.85" style="mix-blend-mode:screen" shape-rendering="crispEdges"/>
</g>
<path fill-rule="evenodd" clip-rule="evenodd" d="M348.957 119.691C350.757 118.324 352.577 117.004 354.383 115.695L354.383 115.695C358.466 112.734 362.481 109.823 366.05 106.523C383.041 90.6194 381.805 71.2722 363.167 57.2936C349.266 46.759 332.996 41.4917 315.903 38.6555C287.483 33.8947 259.886 37.3387 233.731 49.494C224.67 53.7483 216.432 59.1169 210.871 67.8282C204.178 78.3628 204.384 88.7961 211.489 99.1281C217.461 107.839 226.008 113.714 235.379 119.083C217.77 119.59 199.132 104.699 194.19 86.5676C188.835 66.8153 193.263 49.494 207.885 34.9076C225.39 17.5863 247.323 8.26726 271.316 4.01291C307.253 -2.46992 339.689 6.95044 368.522 28.2222C382.732 38.7568 392.102 52.6341 391.999 71.1709C391.793 97.8113 376.347 115.436 348.957 119.691ZM259.18 97.0667L259.181 97.0659C260.273 92.4422 261.349 87.8882 262.357 83.4275C250.412 97.1022 237.026 131.238 236.614 150.484C235.998 173.807 246.227 190.086 266.994 197.313C269.778 198.4 272.804 199.278 276.073 199.949C287.145 202.504 298.308 202.676 309.425 200.412C318.96 198.87 326.633 195.783 332.444 191.152C333.335 190.435 334.181 189.675 334.982 188.874C343.176 181.564 347.838 171.28 348.648 158.993C349.472 147.344 347.206 136.202 343.499 125.262C338.248 109.865 330.937 95.4815 321.257 82.2119C322.08 85.7437 323.174 89.222 324.264 92.6856C324.675 93.9904 325.085 95.293 325.479 96.5957C328.532 106.933 331.417 117.303 333.067 127.875C324.829 121.053 311.896 117.642 294.265 117.642C277.663 117.642 265.109 121.114 256.602 128.057C254.622 129.673 252.872 131.503 251.353 133.546C251.411 133.147 251.475 132.749 251.545 132.353C253.672 120.378 256.477 108.506 259.18 97.0667ZM295.857 187.915C316.724 184.875 337 170.995 334.5 153.995C332.25 138.696 308.649 129.46 287.782 132.501C266.916 135.541 251.808 150.411 254.037 165.714C256.267 181.016 274.991 190.956 295.857 187.915Z" fill="#040F16"/>
<g filter="url(#filter2_dd_1925_6684)">
<path d="M271.266 87.4712C298.655 73.7647 293.298 71.3352 288.384 41.2116C297.363 65.8624 298.084 77.1913 331.75 69.1958C300.937 82.9024 309.497 97.7511 318.626 138.871C308.926 110.315 304.932 83.4735 271.266 87.4712Z" fill="#FFDC27"/>
</g>
<defs>
<filter id="filter0_dd_1925_6684" x="0.0253906" y="87.8613" width="463.34" height="133.139" filterUnits="userSpaceOnUse" color-interpolation-filters="sRGB">
<feFlood flood-opacity="0" result="BackgroundImageFix"/>
<feColorMatrix in="SourceAlpha" type="matrix" values="0 0 0 0 0 0 0 0 0 0 0 0 0 0 0 0 0 0 127 0" result="hardAlpha"/>
<feOffset/>
<feGaussianBlur stdDeviation="2.5"/>
<feComposite in2="hardAlpha" operator="out"/>
<feColorMatrix type="matrix" values="0 0 0 0 1 0 0 0 0 0.864667 0 0 0 0 0.154167 0 0 0 1 0"/>
<feBlend mode="normal" in2="BackgroundImageFix" result="effect1_dropShadow_1925_6684"/>
<feColorMatrix in="SourceAlpha" type="matrix" values="0 0 0 0 0 0 0 0 0 0 0 0 0 0 0 0 0 0 127 0" result="hardAlpha"/>
<feOffset dx="-4" dy="-10"/>
<feGaussianBlur stdDeviation="10"/>
<feComposite in2="hardAlpha" operator="out"/>
<feColorMatrix type="matrix" values="0 0 0 0 1 0 0 0 0 0.864667 0 0 0 0 0.154167 0 0 0 0.04 0"/>
<feBlend mode="normal" in2="effect1_dropShadow_1925_6684" result="effect2_dropShadow_1925_6684"/>
<feBlend mode="normal" in="SourceGraphic" in2="effect2_dropShadow_1925_6684" result="shape"/>
</filter>
<filter id="filter1_dd_1925_6684" x="221.604" y="43.8686" width="136.893" height="166.966" filterUnits="userSpaceOnUse" color-interpolation-filters="sRGB">
<feFlood flood-opacity="0" result="BackgroundImageFix"/>
<feColorMatrix in="SourceAlpha" type="matrix" values="0 0 0 0 0 0 0 0 0 0 0 0 0 0 0 0 0 0 127 0" result="hardAlpha"/>
<feOffset/>
<feGaussianBlur stdDeviation="7.5"/>
<feComposite in2="hardAlpha" operator="out"/>
<feColorMatrix type="matrix" values="0 0 0 0 1 0 0 0 0 0.864667 0 0 0 0 0.154167 0 0 0 0.3 0"/>
<feBlend mode="normal" in2="BackgroundImageFix" result="effect1_dropShadow_1925_6684"/>
<feColorMatrix in="SourceAlpha" type="matrix" values="0 0 0 0 0 0 0 0 0 0 0 0 0 0 0 0 0 0 127 0" result="hardAlpha"/>
<feOffset dx="-4" dy="-10"/>
<feGaussianBlur stdDeviation="10"/>
<feComposite in2="hardAlpha" operator="out"/>
<feColorMatrix type="matrix" values="0 0 0 0 1 0 0 0 0 0.864667 0 0 0 0 0.154167 0 0 0 0.04 0"/>
<feBlend mode="normal" in2="effect1_dropShadow_1925_6684" result="effect2_dropShadow_1925_6684"/>
<feBlend mode="normal" in="SourceGraphic" in2="effect2_dropShadow_1925_6684" result="shape"/>
</filter>
<filter id="filter2_dd_1925_6684" x="247.266" y="21.2116" width="100.484" height="137.659" filterUnits="userSpaceOnUse" color-interpolation-filters="sRGB">
<feFlood flood-opacity="0" result="BackgroundImageFix"/>
<feColorMatrix in="SourceAlpha" type="matrix" values="0 0 0 0 0 0 0 0 0 0 0 0 0 0 0 0 0 0 127 0" result="hardAlpha"/>
<feOffset/>
<feGaussianBlur stdDeviation="7.5"/>
<feComposite in2="hardAlpha" operator="out"/>
<feColorMatrix type="matrix" values="0 0 0 0 0.984314 0 0 0 0 0.984314 0 0 0 0 1 0 0 0 1 0"/>
<feBlend mode="normal" in2="BackgroundImageFix" result="effect1_dropShadow_1925_6684"/>
<feColorMatrix in="SourceAlpha" type="matrix" values="0 0 0 0 0 0 0 0 0 0 0 0 0 0 0 0 0 0 127 0" result="hardAlpha"/>
<feOffset dx="-4"/>
<feGaussianBlur stdDeviation="10"/>
<feComposite in2="hardAlpha" operator="out"/>
<feColorMatrix type="matrix" values="0 0 0 0 0.984314 0 0 0 0 0.984314 0 0 0 0 1 0 0 0 1 0"/>
<feBlend mode="normal" in2="effect1_dropShadow_1925_6684" result="effect2_dropShadow_1925_6684"/>
<feBlend mode="normal" in="SourceGraphic" in2="effect2_dropShadow_1925_6684" result="shape"/>
</filter>
<radialGradient id="paint0_radial_1925_6684" cx="0" cy="0" r="1" gradientUnits="userSpaceOnUse" gradientTransform="translate(300 81.7452) rotate(96.059) scale(90.0028 71.6226)">
<stop stop-color="white" stop-opacity="0"/>
<stop offset="1" stop-color="#FFF500"/>
</radialGradient>
<radialGradient id="paint1_radial_1925_6684" cx="0" cy="0" r="1" gradientUnits="userSpaceOnUse" gradientTransform="translate(299.5 78.7452) rotate(94.4127) scale(117.458 93.4708)">
<stop stop-color="#FBFBFF"/>
<stop offset="0.166667" stop-color="#040F16"/>
<stop offset="0.291667" stop-color="#FBFBFF"/>
<stop offset="0.359375" stop-color="#040F16"/>
<stop offset="0.479167" stop-color="#FBFAFD"/>
<stop offset="0.640625" stop-color="#040F16"/>
<stop offset="0.739583" stop-color="#FBFBFF"/>
</radialGradient>
</defs>
</svg>
