<svg width="111" height="44" viewBox="0 0 111 44" fill="none" xmlns="http://www.w3.org/2000/svg">
<g clip-path="url(#clip0_65_279)">
<path d="M5.0797 20.3054C4.99111 20.3327 4.9104 20.3514 4.83755 20.362C4.76442 20.3643 4.70293 20.3502 4.65312 20.3194C4.61142 20.2885 4.57366 20.2534 4.53982 20.2141C4.51383 20.1663 4.49166 20.1106 4.47325 20.0465C4.46272 19.974 4.45219 19.9016 4.44166 19.8293C4.43114 19.7568 4.42846 19.6761 4.43363 19.587C4.43856 19.4898 4.4398 19.4049 4.4374 19.3323C4.44312 19.2593 4.4487 19.1824 4.45416 19.1013C4.45934 19.0123 4.46099 18.9394 4.45913 18.8829C4.4628 18.5029 4.42379 18.1849 4.34211 17.9289C4.26042 17.6729 4.13718 17.39 3.97236 17.0802C3.94478 16.9841 3.93018 16.9118 3.92857 16.8634C3.93482 16.8066 3.94446 16.7294 3.95751 16.632C3.97868 16.5343 3.98846 16.4613 3.98685 16.4128C3.98733 15.9359 4.07248 15.6825 4.24231 15.6527C4.33168 15.6498 4.46449 15.7304 4.64075 15.8943C4.817 16.0583 4.95753 16.1265 5.06236 16.0988C5.0786 16.0982 5.21593 16.0695 5.47435 16.0125C5.73275 15.9556 5.90651 15.9216 5.99561 15.9106C6.09284 15.8994 6.24278 15.8823 6.44537 15.8595C6.64797 15.8367 6.82672 15.8309 6.98164 15.842C7.14468 15.8528 7.3 15.876 7.44759 15.9116C7.69376 15.9763 7.9025 16.1392 8.07384 16.4004C8.25303 16.6532 8.35163 16.9288 8.36967 17.2273C8.39581 17.5255 8.33623 17.8144 8.19096 18.094C7.91994 18.507 7.49008 18.9131 6.90138 19.3123C6.3208 19.7112 5.71358 20.0422 5.0797 20.3054ZM7.08862 16.4932C6.84298 16.4447 6.58244 16.437 6.30699 16.4703C6.03965 16.5033 5.79749 16.5597 5.58052 16.6396C5.36327 16.7113 5.18841 16.8343 5.05588 17.0083C4.92311 17.1743 4.86886 17.3782 4.89312 17.6199C4.90311 17.6762 4.915 17.7889 4.92873 17.9582C4.95034 18.1192 4.9664 18.2359 4.97693 18.3083C4.98721 18.3726 4.99879 18.4773 5.01174 18.6224C5.03282 18.7672 5.05293 18.8837 5.07212 18.972C5.09919 19.0519 5.12663 19.144 5.15448 19.2482C5.18234 19.3523 5.21384 19.4443 5.24903 19.524C5.90488 19.1873 6.62742 18.6544 7.41669 17.9253C7.57464 17.7828 7.67046 17.6058 7.70413 17.3946C7.73754 17.1752 7.69849 16.9785 7.58698 16.8043C7.47546 16.6301 7.30935 16.5264 7.08862 16.4932Z" fill="#040F16"/>
<path d="M13.2531 19.8442C13.0762 19.9065 12.9095 19.9078 12.753 19.8483C12.6046 19.7886 12.5162 19.6984 12.4878 19.5782C12.4594 19.4578 12.5 19.3312 12.6095 19.1983C12.7035 19.0901 12.8435 19.0209 13.0296 18.9906C13.1266 18.9712 13.4581 18.9119 14.0242 18.8125C14.5901 18.7051 15.0261 18.61 15.3325 18.5272C15.4614 18.4907 15.6462 18.42 15.8867 18.3151C16.127 18.2022 16.3202 18.1393 16.4661 18.1264C16.5956 18.106 16.7108 18.1467 16.8118 18.2485C16.9125 18.3422 16.9688 18.4454 16.9807 18.5582C16.9828 18.6228 16.9564 18.6843 16.9014 18.7427C16.8461 18.793 16.762 18.8321 16.6491 18.86C15.5185 19.1072 14.3865 19.4352 13.2531 19.8442ZM16.5305 16.7542C16.6684 16.7416 16.7912 16.7659 16.899 16.8271C17.0067 16.8882 17.0623 16.9712 17.0658 17.0762C17.0717 17.2538 16.9373 17.3714 16.6626 17.4289C16.5817 17.4396 16.4523 17.4641 16.2746 17.5022C16.0967 17.5323 15.9835 17.5521 15.935 17.5618C15.8865 17.5715 15.7977 17.5906 15.6685 17.619C15.5474 17.6472 15.4427 17.6789 15.3544 17.7142C15.2658 17.7413 15.149 17.7775 15.0041 17.8226C14.8592 17.8678 14.6983 17.9216 14.5214 17.9839C14.055 18.1447 13.7422 18.2802 13.5832 18.3905C13.2413 18.628 13.0775 18.9607 13.0916 19.3887C13.1047 19.7843 13.0896 20.0636 13.0462 20.2266C12.7848 20.1948 12.6172 20.0467 12.5434 19.7825C12.4509 19.446 12.3499 19.2189 12.2402 19.1013C12.2234 19.0856 12.19 19.0584 12.1399 19.0197C12.0979 18.9806 12.0728 18.9572 12.0644 18.9494C12.056 18.9416 12.035 18.9221 12.0014 18.8908C11.976 18.8593 11.9631 18.8395 11.9629 18.8315C11.9623 18.8153 11.9535 18.7954 11.9365 18.7717C11.9194 18.748 11.9148 18.732 11.9227 18.7236C11.9303 18.7072 11.9337 18.6869 11.9329 18.6627C11.9402 18.6382 11.9476 18.6178 11.9552 18.6014C11.9707 18.5766 11.9861 18.5518 12.0016 18.5271C12.0249 18.494 12.0523 18.4608 12.0837 18.4274C12.0991 18.4026 12.1265 18.3694 12.1658 18.3277C12.2051 18.286 12.2286 18.261 12.2365 18.2527C12.2441 18.2362 12.2597 18.2155 12.2833 18.1905C12.3066 18.1574 12.3178 18.1287 12.317 18.1045C12.3243 18.08 12.3355 18.0473 12.3504 18.0064C12.3653 17.9655 12.3799 17.9166 12.3943 17.8595C12.4711 17.4771 12.3834 17.2859 12.1313 17.2861C11.9685 17.2834 11.8482 17.2105 11.7702 17.0676C11.6923 16.9246 11.7167 16.8026 11.8435 16.7014C11.9546 16.617 12.0415 16.5414 12.1044 16.4746C12.1673 16.4079 12.2251 16.3131 12.278 16.1901C12.339 16.0669 12.371 15.9284 12.374 15.7747C12.3867 15.4187 12.4887 15.1849 12.6803 15.0736C12.697 15.0892 12.718 15.1087 12.7432 15.1322C12.7762 15.1473 12.7971 15.1627 12.8058 15.1786C12.8225 15.1942 12.8435 15.2137 12.8687 15.2372C12.8936 15.2525 12.9105 15.2722 12.9194 15.2961C12.9365 15.3198 12.9538 15.3516 12.9714 15.3914C12.989 15.4313 13.0067 15.4752 13.0246 15.5231L13.1991 16.0023C13.2955 15.9669 13.4278 15.91 13.5961 15.8317C13.7721 15.7452 13.9241 15.6674 14.052 15.5986C14.188 15.5295 14.3483 15.4596 14.5331 15.3889C14.7257 15.3098 14.8905 15.2519 15.0276 15.2151C15.1728 15.178 15.3346 15.1525 15.5131 15.1386C15.6997 15.1244 15.8589 15.1434 15.9908 15.1957C16.0894 15.2248 16.1774 15.3027 16.2548 15.4295C15.9923 15.6079 15.5275 15.8211 14.8606 16.0693C14.2016 16.3091 13.7561 16.4893 13.5242 16.6101C13.0764 16.843 12.9222 17.2198 13.0614 17.7407C13.4336 17.68 14.0015 17.5119 14.7651 17.2363C15.5287 16.9608 16.1172 16.8001 16.5305 16.7542Z" fill="#040F16"/>
<path d="M22.1098 19.5544C21.933 19.6168 21.7662 19.6182 21.6097 19.5586C21.4614 19.4988 21.373 19.4087 21.3445 19.2884C21.3162 19.1681 21.3567 19.0415 21.4663 18.9086C21.5602 18.8004 21.7002 18.7312 21.8865 18.7008C21.9833 18.6815 22.3149 18.6222 22.881 18.5228C23.4469 18.4154 23.883 18.3203 24.1892 18.2375C24.3182 18.201 24.5029 18.1303 24.7435 18.0254C24.9837 17.9125 25.1768 17.8496 25.323 17.8367C25.4524 17.8163 25.5675 17.857 25.6685 17.9588C25.7693 18.0525 25.8256 18.1557 25.8374 18.2685C25.8396 18.3331 25.8131 18.3946 25.7581 18.4529C25.7029 18.5033 25.6188 18.5424 25.5059 18.5703C24.3752 18.8175 23.2432 19.1455 22.1098 19.5544ZM25.3872 16.4645C25.5251 16.4519 25.6479 16.4762 25.7557 16.5373C25.8634 16.5985 25.9191 16.6815 25.9225 16.7865C25.9284 16.9641 25.794 17.0817 25.5194 17.1392C25.4385 17.1499 25.309 17.1743 25.1315 17.2125C24.9535 17.2425 24.8402 17.2624 24.7916 17.2721C24.7433 17.2818 24.6543 17.3008 24.5253 17.3293C24.4041 17.3575 24.2994 17.3892 24.2112 17.4245C24.1226 17.4516 24.0057 17.4877 23.861 17.5329C23.716 17.5781 23.5551 17.6318 23.3781 17.6942C22.9118 17.8549 22.5989 17.9905 22.44 18.1008C22.098 18.3383 21.9342 18.671 21.9483 19.0989C21.9615 19.4946 21.9464 19.7739 21.903 19.9371C21.6415 19.9051 21.474 19.757 21.4001 19.4927C21.3076 19.1563 21.2066 18.9292 21.097 18.8115C21.0801 18.7959 21.0467 18.7687 20.9966 18.73C20.9546 18.6909 20.9295 18.6675 20.9212 18.6597C20.9128 18.6519 20.8917 18.6323 20.8582 18.6011C20.8328 18.5696 20.8199 18.5498 20.8197 18.5417C20.8191 18.5256 20.8102 18.5057 20.7931 18.482C20.7762 18.4583 20.7715 18.4423 20.7794 18.4339C20.7871 18.4175 20.7904 18.3972 20.7896 18.373C20.7969 18.3485 20.8043 18.328 20.812 18.3116C20.8275 18.2869 20.8428 18.2621 20.8584 18.2374C20.8815 18.2043 20.909 18.171 20.9405 18.1377C20.9558 18.1129 20.9833 18.0797 21.0226 18.038C21.0619 17.9963 21.0854 17.9713 21.0933 17.9629C21.1007 17.9465 21.1165 17.9258 21.14 17.9008C21.1632 17.8677 21.1746 17.839 21.1738 17.8148C21.1811 17.7903 21.1923 17.7576 21.207 17.7167C21.2219 17.6758 21.2367 17.6268 21.251 17.5698C21.3278 17.1874 21.2402 16.9962 20.988 16.9964C20.8254 16.9936 20.7049 16.9208 20.627 16.7778C20.549 16.6349 20.5735 16.5128 20.7002 16.4117C20.8114 16.3272 20.8982 16.2517 20.9611 16.1849C21.0239 16.1182 21.0819 16.0234 21.1347 15.9004C21.1958 15.7771 21.2278 15.6387 21.2308 15.485C21.2434 15.1289 21.3455 14.8952 21.537 14.7839C21.5537 14.7995 21.5747 14.819 21.5999 14.8424C21.6331 14.8575 21.6539 14.873 21.6625 14.8889C21.6792 14.9045 21.7002 14.924 21.7254 14.9474C21.7503 14.9628 21.7672 14.9825 21.7763 15.0064C21.7932 15.0301 21.8106 15.0619 21.8281 15.1017C21.8458 15.1416 21.8635 15.1854 21.8814 15.2334L22.0558 15.7126C22.1522 15.6771 22.2846 15.6203 22.4528 15.542C22.629 15.4554 22.7808 15.3777 22.9087 15.3089C23.0448 15.2398 23.2051 15.1698 23.3897 15.0991C23.5824 15.0201 23.7472 14.9622 23.8843 14.9253C24.0295 14.8882 24.1914 14.8627 24.3699 14.8488C24.5565 14.8346 24.7156 14.8537 24.8476 14.9059C24.9462 14.9351 25.034 15.013 25.1116 15.1398C24.849 15.3181 24.3842 15.5314 23.7174 15.7795C23.0584 16.0193 22.6129 16.1996 22.3809 16.3203C21.9332 16.5533 21.7788 16.9301 21.9181 17.451C22.2903 17.3903 22.8582 17.2222 23.6219 16.9466C24.3854 16.6711 24.9739 16.5104 25.3872 16.4645Z" fill="#040F16"/>
<path d="M29.9858 19.4907C29.9408 18.3767 29.7519 16.9724 29.4193 15.2778C29.4089 15.2134 29.4071 15.1569 29.4136 15.1082C29.4279 15.0511 29.4468 15.0061 29.4702 14.973C29.4932 14.9318 29.5285 14.8943 29.5762 14.8604C29.632 14.8262 29.6758 14.8005 29.7079 14.7833C29.7479 14.7658 29.8043 14.7478 29.877 14.7293C29.9493 14.7027 30.0017 14.6888 30.0341 14.6878C30.0663 14.6787 30.119 14.6689 30.1919 14.6584C30.2724 14.6396 30.317 14.63 30.325 14.6298C31.0526 14.4928 31.7568 14.5142 32.438 14.694C33.1188 14.8658 33.3174 15.2149 33.034 15.7415C32.8507 16.1032 32.5871 16.3745 32.2434 16.5555C31.8996 16.7365 31.4091 16.9061 30.7717 17.0643C30.5859 17.1028 30.4586 17.1878 30.3897 17.3193C30.3288 17.4426 30.2942 17.6256 30.2859 17.8683C30.2899 17.9895 30.303 18.1386 30.325 18.3157C30.3551 18.4844 30.3802 18.6291 30.4005 18.7497C30.4205 18.8622 30.4284 18.9751 30.4238 19.0884C30.4195 19.2017 30.3818 19.2919 30.3109 19.3589C30.24 19.4258 30.1315 19.4698 29.9858 19.4907ZM32.4376 15.4215C32.3909 15.2371 32.2443 15.1086 31.9978 15.0358C31.7515 14.963 31.4867 14.9515 31.2037 15.0012C30.9202 15.0428 30.699 15.1187 30.5401 15.229C30.2781 15.4235 30.1516 15.6579 30.1608 15.9325C30.1645 16.0455 30.1799 16.142 30.207 16.222C30.2419 16.2936 30.2724 16.3532 30.2983 16.4008C30.3321 16.4401 30.3859 16.4707 30.46 16.4926C30.5417 16.506 30.6032 16.5162 30.644 16.5229C30.6927 16.5213 30.7695 16.5107 30.8748 16.4911C30.9799 16.4715 31.0526 16.457 31.0929 16.4476C31.1333 16.4382 31.2097 16.4155 31.3225 16.3795C31.524 16.3244 31.7676 16.1871 32.0532 15.9676C32.3386 15.7481 32.4669 15.5661 32.4376 15.4215Z" fill="#040F16"/>
<path d="M17.1673 39.1077C15.3053 39.1077 13.9154 38.8862 12.9975 38.4432C12.0928 37.9871 11.6273 37.1857 11.601 36.0391C11.4306 36.5212 11.3716 36.9708 11.424 37.3876C11.4896 37.8046 11.5945 38.2152 11.7387 38.619C10.3357 38.6581 9.16868 38.6972 8.2377 38.7363C7.30671 38.7886 6.46097 38.808 5.70044 38.795C5.50375 37.7526 5.3923 36.7231 5.36607 35.7068C5.35295 34.6775 5.43164 33.5895 5.6021 32.4427C6.32329 32.4427 7.04446 32.5144 7.76565 32.6578C8.48683 32.801 9.16868 33.0031 9.81119 33.2636C10.4537 33.5113 11.0044 33.8175 11.4634 34.1823L11.8567 33.7718C11.4109 33.42 10.9258 33.1269 10.4012 32.8924C9.88986 32.6447 9.37192 32.4362 8.84744 32.2669C8.1787 32.0324 7.56896 31.7326 7.01824 31.3677C6.48063 31.0029 6.05448 30.5468 5.73978 29.9996C5.42508 29.4523 5.26772 28.8007 5.26772 28.0451C5.26772 27.1069 5.48409 26.2599 5.9168 25.5041C6.34951 24.7355 7.05758 24.1295 8.04102 23.6865C9.03756 23.2304 10.375 23.0024 12.0534 23.0024C13.7187 23.0024 14.9906 23.2369 15.8691 23.706C16.7477 24.1621 17.2001 25.0091 17.2263 26.2468C17.4099 25.7518 17.4689 25.2892 17.4033 24.8592C17.3377 24.4292 17.2328 23.9731 17.0886 23.4909C18.0327 23.4779 18.8194 23.465 19.4488 23.4518C20.0781 23.4259 20.6356 23.3997 21.1206 23.3736C21.6058 23.3477 22.0976 23.3345 22.5958 23.3345C22.7926 24.2729 22.8975 25.2892 22.9104 26.3837C22.9368 27.4652 22.8647 28.5727 22.6942 29.7065C21.9468 29.6933 21.2779 29.6283 20.6881 29.511C20.1109 29.3806 19.5734 29.1916 19.0751 28.9441C18.5769 28.6966 18.0655 28.3904 17.541 28.0254L17.187 28.4751C17.6852 28.8398 18.1966 29.1526 18.7211 29.4132C19.2456 29.6607 19.7373 29.8888 20.1962 30.0974C20.878 30.3969 21.4551 30.7293 21.9271 31.0941C22.3991 31.459 22.7598 31.902 23.0089 32.4233C23.2711 32.9444 23.4023 33.596 23.4023 34.3778C23.4023 35.4593 23.2122 36.3192 22.8319 36.9576C22.4648 37.5962 21.9729 38.0718 21.3567 38.3845C20.7405 38.6842 20.0652 38.8797 19.3308 38.9708C18.6096 39.0622 17.8885 39.1077 17.1673 39.1077Z" fill="#040F16"/>
<path d="M26.0496 38.8145C25.9315 38.5409 25.8398 38.1955 25.7742 37.7787C25.7086 37.3617 25.6693 36.9317 25.6561 36.4886C25.643 36.0327 25.6561 35.596 25.6954 35.1792C25.7479 34.7622 25.8201 34.4168 25.9119 34.1432C26.1085 34.065 26.2986 33.9348 26.4823 33.7523C26.6789 33.5569 26.8428 33.2506 26.974 32.8336C27.105 32.4036 27.1706 31.8043 27.1706 31.0355C27.1706 30.2015 27.092 29.5761 26.9347 29.1592C26.7903 28.7291 26.6133 28.4425 26.4035 28.2991C26.2069 28.1427 26.0299 28.0645 25.8726 28.0645C25.7545 27.83 25.6693 27.5108 25.6168 27.1069C25.5644 26.7029 25.5381 26.2729 25.5381 25.8168C25.5512 25.3477 25.5905 24.8983 25.6561 24.4683C25.7217 24.0252 25.8201 23.6474 25.9512 23.3345C26.9215 23.3736 27.7935 23.3803 28.5672 23.3542C29.3539 23.3281 30.1341 23.289 30.9076 23.2369C31.6943 23.1849 32.5466 23.1391 33.4646 23.1C34.3956 23.0479 35.4905 23.0218 36.7492 23.0218C38.5982 23.0218 40.1584 23.1849 41.4303 23.5105C42.7024 23.8232 43.6661 24.4031 44.3218 25.2501C44.9904 26.0839 45.3247 27.2763 45.3247 28.8269C45.3247 30.1691 45.0692 31.2439 44.5577 32.0518C44.0595 32.8597 43.3382 33.4461 42.3942 33.8109C41.4502 34.1627 40.3158 34.3387 38.9915 34.3387C38.1523 34.3387 37.4835 34.2734 36.9853 34.1432C36.487 33.9998 36.0281 33.6871 35.6086 33.2051L35.1955 33.5763C35.5363 33.9804 35.9494 34.2931 36.4346 34.5145C36.9197 34.7231 37.523 34.8403 38.2441 34.8665C38.3621 35.2312 38.4342 35.6482 38.4605 36.1173C38.4998 36.5864 38.4866 37.0555 38.421 37.5245C38.3686 37.9936 38.2704 38.4171 38.126 38.795C37.4835 38.7428 36.5919 38.6778 35.4512 38.5996C34.3235 38.5214 33.0318 38.4888 31.5765 38.5018C30.842 38.5018 30.1209 38.5214 29.4128 38.5605C28.7047 38.5996 28.0557 38.6387 27.4656 38.6778C26.8887 38.7298 26.4167 38.7754 26.0496 38.8145ZM35.1955 30.195H36.3953V28.8854H35.1955V30.195Z" fill="#040F16"/>
<path d="M69.2969 38.8145C69.1788 38.5409 69.0869 38.1955 69.0215 37.7787C68.9559 37.3617 68.9166 36.9317 68.9034 36.4886C68.8903 36.0327 68.9034 35.596 68.9427 35.1792C68.9951 34.7622 69.0672 34.4168 69.1592 34.1432C69.3558 34.065 69.5459 33.9348 69.7294 33.7523C69.9262 33.5569 70.09 33.2506 70.2212 32.8336C70.3523 32.4036 70.4179 31.8043 70.4179 31.0355C70.4179 30.2015 70.3391 29.5761 70.1818 29.1592C70.0376 28.7291 69.8606 28.4425 69.6508 28.2991C69.4542 28.1427 69.277 28.0645 69.1197 28.0645C69.0018 27.83 68.9166 27.5108 68.8641 27.1069C68.8117 26.7029 68.7854 26.2729 68.7854 25.8168C68.7985 25.3477 68.8378 24.8983 68.9034 24.4683C68.969 24.0252 69.0672 23.6474 69.1984 23.3345C70.1688 23.3736 71.0408 23.3803 71.8143 23.3542C72.6012 23.3281 73.3812 23.289 74.1549 23.2369C74.9416 23.1849 75.7939 23.1391 76.7118 23.1C77.6429 23.0479 78.7378 23.0218 79.9965 23.0218C81.8453 23.0218 83.4189 23.1849 84.7171 23.5105C86.0282 23.8232 87.0314 24.3835 87.7264 25.1914C88.4213 25.9993 88.7621 27.146 88.749 28.6314C88.749 29.3871 88.6244 30.0712 88.3754 30.6837C88.1393 31.283 87.7918 31.7912 87.3329 32.2082C87.5952 32.7293 87.8967 33.1463 88.2377 33.4591C88.5787 33.7718 88.8998 33.9998 89.2014 34.1432C89.2933 34.4168 89.3522 34.7622 89.3785 35.1792C89.4178 35.596 89.431 36.0327 89.4178 36.4886C89.4178 36.9317 89.385 37.3617 89.3194 37.7787C89.2538 38.1955 89.1687 38.5409 89.0639 38.8145C88.7753 38.7754 88.4475 38.7298 88.0803 38.6778C87.7264 38.6387 87.3001 38.5996 86.8018 38.5605C86.3036 38.5214 85.6873 38.5018 84.953 38.5018C83.9697 38.5018 83.1567 38.5214 82.5141 38.5605C81.8848 38.5996 81.3536 38.6387 80.9209 38.6778C80.5013 38.7298 80.1211 38.7754 79.7802 38.8145C79.9244 37.7591 79.99 36.8339 79.9769 36.0391C79.9769 35.2442 79.8653 34.5471 79.6426 33.9478C79.4196 33.3483 79.0393 32.8142 78.5017 32.3451V34.1432L79.2098 34.1627C79.3279 34.6058 79.3933 35.1204 79.4064 35.7068C79.4328 36.2802 79.4129 36.8471 79.3475 37.4073C79.2951 37.9545 79.2031 38.4171 79.0721 38.795C78.5213 38.7428 77.8002 38.6778 76.9085 38.5996C76.0169 38.5214 75.0465 38.4888 73.9976 38.5018C73.0797 38.5149 72.2012 38.554 71.3619 38.619C70.5228 38.6972 69.8343 38.7624 69.2969 38.8145ZM78.4229 30.2537H79.6227V28.9051H78.4229V30.2537Z" fill="#040F16"/>
<path d="M92.1007 38.8145C91.9958 38.5409 91.9107 38.1955 91.8451 37.7787C91.7795 37.3617 91.7402 36.9317 91.727 36.4886C91.727 36.0327 91.7402 35.596 91.7663 35.1792C91.8056 34.7622 91.8712 34.4168 91.9632 34.1432C92.1729 34.065 92.376 33.9348 92.5729 33.7523C92.7695 33.5569 92.9333 33.2506 93.0645 32.8336C93.1955 32.4036 93.2612 31.8043 93.2612 31.0355C93.2612 30.2015 93.1826 29.5761 93.0252 29.1592C92.8809 28.7291 92.7039 28.4425 92.4941 28.2991C92.2975 28.1427 92.1205 28.0645 91.9632 28.0645C91.8451 27.83 91.7598 27.5108 91.7074 27.1069C91.655 26.7029 91.6286 26.2729 91.6286 25.8168C91.6418 25.3477 91.6811 24.8983 91.7467 24.4683C91.8123 24.0252 91.9107 23.6474 92.0417 23.3345C92.2515 23.3477 92.5925 23.3671 93.0645 23.3933C93.5497 23.4062 94.107 23.4259 94.7363 23.4518C95.3788 23.465 96.0477 23.4779 96.7425 23.4909C97.4374 23.5041 98.1194 23.517 98.7881 23.53C99.4699 23.53 100.08 23.53 100.617 23.53C101.994 23.53 103.522 23.5105 105.2 23.4714C106.892 23.4324 108.57 23.3803 110.235 23.3151C110.301 23.5626 110.36 23.9211 110.412 24.3901C110.465 24.8592 110.504 25.3803 110.53 25.9537C110.556 26.5271 110.57 27.1069 110.57 27.6933C110.57 28.2796 110.55 28.8204 110.511 29.3156C110.471 29.7976 110.412 30.1756 110.334 30.4492C109.717 30.5274 109.036 30.5794 108.288 30.6055C107.541 30.6315 106.78 30.6315 106.006 30.6055C105.246 30.5794 104.525 30.5274 103.843 30.4492C103.686 29.8367 103.686 29.2307 103.843 28.6314H101.561V29.4523H103.391V32.1691H101.542V33.0096H103.843C103.686 32.3972 103.686 31.7847 103.843 31.1722C104.944 31.1072 106.072 31.0746 107.226 31.0746C108.38 31.0746 109.455 31.1072 110.452 31.1722C110.491 31.4068 110.524 31.7847 110.55 32.306C110.576 32.8142 110.589 33.394 110.589 34.0454C110.589 34.684 110.576 35.3289 110.55 35.9804C110.537 36.632 110.511 37.2118 110.471 37.72C110.432 38.2281 110.38 38.5931 110.314 38.8145C108.937 38.7886 107.442 38.7298 105.829 38.6387C104.217 38.5605 102.637 38.5214 101.089 38.5214C100.25 38.5214 99.365 38.5279 98.4341 38.5409C97.5162 38.567 96.6246 38.5931 95.7591 38.619C94.9068 38.6581 94.1529 38.6907 93.4973 38.7169C92.8547 38.7559 92.3892 38.7886 92.1007 38.8145Z" fill="#040F16"/>
<g filter="url(#filter0_dd_65_279)">
<path d="M80.3279 28.2282C83.4788 26.6334 82.8626 26.3507 82.2973 22.846C83.3301 25.7141 83.4132 27.0321 87.2862 26.1018C83.7414 27.6966 84.7261 29.4242 85.7764 34.2084C84.6603 30.886 84.2009 27.763 80.3279 28.2282Z" fill="#FFDC27"/>
<path d="M4.12999 35.9454C6.82141 34.5834 6.29501 34.3418 5.81213 31.3482C6.69442 33.7981 6.76535 34.9238 10.0736 34.1293C7.0457 35.4915 7.88678 36.9671 8.78391 41.0536C7.8307 38.2158 7.4382 35.5483 4.12999 35.9454Z" fill="#FFDC27"/>
</g>
<g filter="url(#filter1_dd_65_279)">
<path d="M58.3495 14.502C63.2327 15.0445 66.3718 20.2555 66.6867 30.249L63.1023 36.4603L56.4159 38.4195L49.7705 35.8512L47.6544 28.7528C48.2159 18.9152 53.4665 13.9594 58.3495 14.502Z" fill="url(#paint0_radial_65_279)" fill-opacity="0.54"/>
<path d="M58.3495 14.502C63.2327 15.0445 66.3718 20.2555 66.6867 30.249L63.1023 36.4603L56.4159 38.4195L49.7705 35.8512L47.6544 28.7528C48.2159 18.9152 53.4665 13.9594 58.3495 14.502Z" fill="url(#paint1_radial_65_279)"/>
<g style="mix-blend-mode:soft-light">
<path d="M58.3495 14.502C63.2327 15.0445 66.3718 20.2555 66.6867 30.249L63.1023 36.4603L56.4159 38.4195L49.7705 35.8512L47.6544 28.7528C48.2159 18.9152 53.4665 13.9594 58.3495 14.502Z" fill="white"/>
</g>
</g>
<path fill-rule="evenodd" clip-rule="evenodd" d="M67.9559 23.3153C68.3094 23.0468 68.6669 22.7875 69.0217 22.5304V22.5302C69.8237 21.9487 70.6123 21.3769 71.3134 20.7285C74.6509 17.6048 74.4081 13.8044 70.7471 11.0586C68.0165 8.98934 64.8207 7.95469 61.4631 7.39756C55.8806 6.4624 50.4598 7.1389 45.3222 9.52655C43.5423 10.3622 41.9242 11.4168 40.8318 13.1279C39.5171 15.1972 39.5576 17.2466 40.9532 19.2761C42.1263 20.9872 43.8052 22.1412 45.6459 23.1959C42.187 23.2952 38.5259 20.3704 37.5552 16.8089C36.5033 12.9289 37.3731 9.52655 40.2453 6.66136C43.6838 3.25897 47.992 1.42844 52.7049 0.592768C59.764 -0.680645 66.1354 1.16978 71.799 5.34816C74.5902 7.41746 76.4308 10.1434 76.4105 13.7845C76.3701 19.0174 73.336 22.4795 67.9559 23.3153ZM50.3211 18.8712L50.3213 18.871C50.5358 17.9628 50.7471 17.0683 50.9451 16.1921C48.5988 18.8782 45.9694 25.5834 45.8885 29.3639C45.7675 33.9452 47.7767 37.1429 51.856 38.5625C52.4028 38.776 52.9972 38.9484 53.6394 39.0801C55.8142 39.5819 58.0069 39.6159 60.1906 39.1712C62.0636 38.8683 63.5708 38.2619 64.7122 37.3523C64.8872 37.2114 65.0534 37.0621 65.2108 36.9048C66.8203 35.4689 67.736 33.4488 67.8952 31.0353C68.057 28.7471 67.6119 26.5585 66.8837 24.4096C65.8523 21.3852 64.4162 18.5598 62.5148 15.9533C62.6764 16.647 62.8913 17.3303 63.1054 18.0106C63.1862 18.2669 63.2667 18.5228 63.3441 18.7787C63.9438 20.8092 64.5105 22.8462 64.8346 24.9227C63.2164 23.5828 60.676 22.9128 57.2128 22.9128C53.9517 22.9128 51.4857 23.5946 49.8147 24.9586C49.4258 25.276 49.082 25.6353 48.7836 26.0368C48.795 25.9582 48.8076 25.8801 48.8214 25.8023C49.2392 23.4502 49.7901 21.1182 50.3211 18.8712ZM57.5255 36.7164C61.6244 36.1193 65.6072 33.3929 65.1161 30.0536C64.6741 27.0484 60.0382 25.2342 55.9393 25.8313C51.8407 26.4287 48.873 29.3496 49.3109 32.3553C49.7489 35.3613 53.4268 37.3138 57.5255 36.7164Z" fill="#040F16"/>
<g filter="url(#filter2_dd_65_279)">
<path d="M52.6951 16.9864C58.0751 14.294 57.0228 13.8168 56.0576 7.89965C57.8213 12.7418 57.9629 14.9671 64.5759 13.3965C58.5233 16.0889 60.2048 19.0056 61.998 27.0826C60.0926 21.4736 59.3081 16.2011 52.6951 16.9864Z" fill="#FFDC27"/>
</g>
</g>
<defs>
<filter id="filter0_dd_65_279" x="-19.87" y="-7.15398" width="123.156" height="63.2076" filterUnits="userSpaceOnUse" color-interpolation-filters="sRGB">
<feFlood flood-opacity="0" result="BackgroundImageFix"/>
<feColorMatrix in="SourceAlpha" type="matrix" values="0 0 0 0 0 0 0 0 0 0 0 0 0 0 0 0 0 0 127 0" result="hardAlpha"/>
<feOffset/>
<feGaussianBlur stdDeviation="7.5"/>
<feComposite in2="hardAlpha" operator="out"/>
<feColorMatrix type="matrix" values="0 0 0 0 1 0 0 0 0 0.864667 0 0 0 0 0.154167 0 0 0 1 0"/>
<feBlend mode="normal" in2="BackgroundImageFix" result="effect1_dropShadow_65_279"/>
<feColorMatrix in="SourceAlpha" type="matrix" values="0 0 0 0 0 0 0 0 0 0 0 0 0 0 0 0 0 0 127 0" result="hardAlpha"/>
<feOffset dx="-4" dy="-10"/>
<feGaussianBlur stdDeviation="10"/>
<feComposite in2="hardAlpha" operator="out"/>
<feColorMatrix type="matrix" values="0 0 0 0 1 0 0 0 0 0.864667 0 0 0 0 0.154167 0 0 0 0.04 0"/>
<feBlend mode="normal" in2="effect1_dropShadow_65_279" result="effect2_dropShadow_65_279"/>
<feBlend mode="normal" in="SourceGraphic" in2="effect2_dropShadow_65_279" result="shape"/>
</filter>
<filter id="filter1_dd_65_279" x="23.6544" y="-15.5383" width="59.0324" height="68.9577" filterUnits="userSpaceOnUse" color-interpolation-filters="sRGB">
<feFlood flood-opacity="0" result="BackgroundImageFix"/>
<feColorMatrix in="SourceAlpha" type="matrix" values="0 0 0 0 0 0 0 0 0 0 0 0 0 0 0 0 0 0 127 0" result="hardAlpha"/>
<feOffset/>
<feGaussianBlur stdDeviation="7.5"/>
<feComposite in2="hardAlpha" operator="out"/>
<feColorMatrix type="matrix" values="0 0 0 0 1 0 0 0 0 0.864667 0 0 0 0 0.154167 0 0 0 0.3 0"/>
<feBlend mode="normal" in2="BackgroundImageFix" result="effect1_dropShadow_65_279"/>
<feColorMatrix in="SourceAlpha" type="matrix" values="0 0 0 0 0 0 0 0 0 0 0 0 0 0 0 0 0 0 127 0" result="hardAlpha"/>
<feOffset dx="-4" dy="-10"/>
<feGaussianBlur stdDeviation="10"/>
<feComposite in2="hardAlpha" operator="out"/>
<feColorMatrix type="matrix" values="0 0 0 0 1 0 0 0 0 0.864667 0 0 0 0 0.154167 0 0 0 0.04 0"/>
<feBlend mode="normal" in2="effect1_dropShadow_65_279" result="effect2_dropShadow_65_279"/>
<feBlend mode="normal" in="SourceGraphic" in2="effect2_dropShadow_65_279" result="shape"/>
</filter>
<filter id="filter2_dd_65_279" x="28.6951" y="-22.1003" width="51.8808" height="64.1829" filterUnits="userSpaceOnUse" color-interpolation-filters="sRGB">
<feFlood flood-opacity="0" result="BackgroundImageFix"/>
<feColorMatrix in="SourceAlpha" type="matrix" values="0 0 0 0 0 0 0 0 0 0 0 0 0 0 0 0 0 0 127 0" result="hardAlpha"/>
<feOffset/>
<feGaussianBlur stdDeviation="7.5"/>
<feComposite in2="hardAlpha" operator="out"/>
<feColorMatrix type="matrix" values="0 0 0 0 1 0 0 0 0 0.864667 0 0 0 0 0.154167 0 0 0 1 0"/>
<feBlend mode="normal" in2="BackgroundImageFix" result="effect1_dropShadow_65_279"/>
<feColorMatrix in="SourceAlpha" type="matrix" values="0 0 0 0 0 0 0 0 0 0 0 0 0 0 0 0 0 0 127 0" result="hardAlpha"/>
<feOffset dx="-4" dy="-10"/>
<feGaussianBlur stdDeviation="10"/>
<feComposite in2="hardAlpha" operator="out"/>
<feColorMatrix type="matrix" values="0 0 0 0 1 0 0 0 0 0.864667 0 0 0 0 0.154167 0 0 0 0.04 0"/>
<feBlend mode="normal" in2="effect1_dropShadow_65_279" result="effect2_dropShadow_65_279"/>
<feBlend mode="normal" in="SourceGraphic" in2="effect2_dropShadow_65_279" result="shape"/>
</filter>
<radialGradient id="paint0_radial_65_279" cx="0" cy="0" r="1" gradientUnits="userSpaceOnUse" gradientTransform="translate(58.3393 16.0089) rotate(96.059) scale(17.6791 14.0687)">
<stop stop-color="#FBFBFF"/>
<stop offset="1"/>
</radialGradient>
<radialGradient id="paint1_radial_65_279" cx="0" cy="0" r="1" gradientUnits="userSpaceOnUse" gradientTransform="translate(58.2411 15.4196) rotate(100.349) scale(22.9629 20.2331)">
<stop offset="0.0967579" stop-color="white"/>
<stop offset="0.211731" stop-color="#BDFFEF"/>
<stop offset="0.227902" stop-color="white"/>
<stop offset="0.246509" stop-color="#FFFACB"/>
<stop offset="0.27092" stop-color="#9BFFFF"/>
<stop offset="0.375229" stop-color="#3FFFFF"/>
<stop offset="0.4375" stop-color="#FFF3D3"/>
<stop offset="0.508224" stop-color="#2EE1FF"/>
<stop offset="0.534681" stop-color="#2EE1FF"/>
<stop offset="0.737033" stop-color="#4747EF"/>
<stop offset="0.820193" stop-color="#0000FF"/>
</radialGradient>
<clipPath id="clip0_65_279">
<rect width="110.589" height="44" fill="white"/>
</clipPath>
</defs>
</svg>
