<svg width="135" height="135" viewBox="0 0 135 135" fill="none" xmlns="http://www.w3.org/2000/svg">
<rect width="135" height="135" rx="67.5" fill="#040F16"/>
<g filter="url(#filter0_dd_1925_6309)">
<path d="M71.7243 54.1024C84.1541 55.4835 92.1446 68.748 92.9463 94.1858L83.8225 109.996L66.8021 114.983L49.8866 108.446L44.5 90.3775C45.9298 65.3362 59.2945 52.7213 71.7243 54.1024Z" fill="url(#paint0_radial_1925_6309)" fill-opacity="0.68"/>
<path d="M71.7243 54.1024C84.1541 55.4835 92.1446 68.748 92.9463 94.1858L83.8225 109.996L66.8021 114.983L49.8866 108.446L44.5 90.3775C45.9298 65.3362 59.2945 52.7213 71.7243 54.1024Z" fill="url(#paint1_radial_1925_6309)"/>
<path d="M71.7243 54.1024C84.1541 55.4835 92.1446 68.748 92.9463 94.1858L83.8225 109.996L66.8021 114.983L49.8866 108.446L44.5 90.3775C45.9298 65.3362 59.2945 52.7213 71.7243 54.1024Z" fill="#CACACA" fill-opacity="0.22" style="mix-blend-mode:darken"/>
</g>
<path fill-rule="evenodd" clip-rule="evenodd" d="M96.4784 76.8478C97.3785 76.1643 98.2883 75.5046 99.1915 74.8498C101.233 73.3695 103.24 71.914 105.025 70.2637C113.52 62.3121 112.902 52.6385 103.583 45.6492C96.6329 40.3819 88.4981 37.7483 79.9514 36.3302C65.7413 33.9497 51.943 35.6718 38.8655 41.7494C34.3348 43.8766 30.2159 46.5609 27.4356 50.9165C24.0891 56.1838 24.192 61.4005 27.7446 66.5665C30.7307 70.9221 35.0041 73.8596 39.6893 76.5439C30.8852 76.7972 21.5662 69.3521 19.0949 60.2862C16.4176 50.4101 18.6315 41.7494 25.9425 34.4562C34.6952 25.7956 45.6617 21.136 57.6579 19.0089C75.6266 15.7675 91.8447 20.4776 106.261 31.1135C113.366 36.3808 118.051 43.3195 118 52.5879C117.897 65.9081 110.174 74.7206 96.4784 76.8478ZM51.5902 65.5358L51.5904 65.5353C52.1367 63.2235 52.6747 60.9465 53.1786 58.7161C47.2062 65.5535 40.513 82.6216 40.3071 92.2445C39.9992 103.906 45.1135 112.045 55.4972 115.659C56.8888 116.202 58.4018 116.642 60.0363 116.977C65.5724 118.254 71.1538 118.34 76.7127 117.208C81.4799 116.437 85.3163 114.894 88.2219 112.579C88.6677 112.22 89.0907 111.84 89.4909 111.439C93.5879 107.784 95.9188 102.642 96.3239 96.4988C96.7358 90.6744 95.6031 85.1033 93.7496 79.6334C91.1238 71.935 87.4683 64.7431 82.6286 58.1084C83.04 59.8742 83.5872 61.6134 84.1321 63.3452C84.3374 63.9976 84.5423 64.6489 84.7395 65.3003C86.2659 70.4688 87.7086 75.6538 88.5333 80.9397C84.4147 77.5289 77.9478 75.8234 69.1327 75.8234C60.8316 75.8234 54.5543 77.5592 50.3009 81.0308C49.3109 81.8388 48.4361 82.7537 47.6765 83.7753C47.7057 83.5757 47.7377 83.3767 47.7726 83.1787C48.8358 77.1915 50.2386 71.2556 51.5902 65.5358ZM69.9285 110.96C80.3618 109.44 90.5 102.5 89.25 94C88.125 86.3503 76.3244 81.7324 65.8911 83.2527C55.4578 84.773 47.9038 92.208 49.0187 99.8592C50.1336 107.51 59.4953 112.48 69.9285 110.96Z" fill="#FBFBFF"/>
<g filter="url(#filter1_dd_1925_6309)">
<path d="M57.6328 60.738C71.3275 53.8847 68.649 52.67 66.192 37.6082C70.6813 49.9336 71.0422 55.5981 87.8752 51.6003C72.4687 58.4536 76.7483 65.878 81.3132 86.4377C76.463 72.1601 74.4659 58.7391 57.6328 60.738Z" fill="#FFDC27"/>
</g>
<defs>
<filter id="filter0_dd_1925_6309" x="20.5" y="24" width="88.4453" height="105.983" filterUnits="userSpaceOnUse" color-interpolation-filters="sRGB">
<feFlood flood-opacity="0" result="BackgroundImageFix"/>
<feColorMatrix in="SourceAlpha" type="matrix" values="0 0 0 0 0 0 0 0 0 0 0 0 0 0 0 0 0 0 127 0" result="hardAlpha"/>
<feOffset/>
<feGaussianBlur stdDeviation="7.5"/>
<feComposite in2="hardAlpha" operator="out"/>
<feColorMatrix type="matrix" values="0 0 0 0 1 0 0 0 0 0.864667 0 0 0 0 0.154167 0 0 0 0.3 0"/>
<feBlend mode="normal" in2="BackgroundImageFix" result="effect1_dropShadow_1925_6309"/>
<feColorMatrix in="SourceAlpha" type="matrix" values="0 0 0 0 0 0 0 0 0 0 0 0 0 0 0 0 0 0 127 0" result="hardAlpha"/>
<feOffset dx="-4" dy="-10"/>
<feGaussianBlur stdDeviation="10"/>
<feComposite in2="hardAlpha" operator="out"/>
<feColorMatrix type="matrix" values="0 0 0 0 1 0 0 0 0 0.864667 0 0 0 0 0.154167 0 0 0 0.04 0"/>
<feBlend mode="normal" in2="effect1_dropShadow_1925_6309" result="effect2_dropShadow_1925_6309"/>
<feBlend mode="normal" in="SourceGraphic" in2="effect2_dropShadow_1925_6309" result="shape"/>
</filter>
<filter id="filter1_dd_1925_6309" x="33.6328" y="7.60822" width="70.2422" height="88.8295" filterUnits="userSpaceOnUse" color-interpolation-filters="sRGB">
<feFlood flood-opacity="0" result="BackgroundImageFix"/>
<feColorMatrix in="SourceAlpha" type="matrix" values="0 0 0 0 0 0 0 0 0 0 0 0 0 0 0 0 0 0 127 0" result="hardAlpha"/>
<feOffset/>
<feGaussianBlur stdDeviation="4"/>
<feComposite in2="hardAlpha" operator="out"/>
<feColorMatrix type="matrix" values="0 0 0 0 1 0 0 0 0 0.892667 0 0 0 0 0.329167 0 0 0 0.7 0"/>
<feBlend mode="normal" in2="BackgroundImageFix" result="effect1_dropShadow_1925_6309"/>
<feColorMatrix in="SourceAlpha" type="matrix" values="0 0 0 0 0 0 0 0 0 0 0 0 0 0 0 0 0 0 127 0" result="hardAlpha"/>
<feOffset dx="-4" dy="-10"/>
<feGaussianBlur stdDeviation="10"/>
<feComposite in2="hardAlpha" operator="out"/>
<feColorMatrix type="matrix" values="0 0 0 0 1 0 0 0 0 0.864667 0 0 0 0 0.154167 0 0 0 0.04 0"/>
<feBlend mode="normal" in2="effect1_dropShadow_1925_6309" result="effect2_dropShadow_1925_6309"/>
<feBlend mode="normal" in="SourceGraphic" in2="effect2_dropShadow_1925_6309" result="shape"/>
</filter>
<radialGradient id="paint0_radial_1925_6309" cx="0" cy="0" r="1" gradientUnits="userSpaceOnUse" gradientTransform="translate(71.6982 57.9383) rotate(96.059) scale(45.0014 35.8113)">
<stop stop-color="#FBFBFF"/>
<stop offset="1"/>
</radialGradient>
<radialGradient id="paint1_radial_1925_6309" cx="0" cy="0" r="1" gradientUnits="userSpaceOnUse" gradientTransform="translate(71.4482 56.4383) rotate(100.349) scale(58.4508 51.5023)">
<stop offset="0.0627988" stop-color="white"/>
<stop offset="0.165482" stop-color="#7BEDFD"/>
<stop offset="0.239569" stop-color="#31BEEB"/>
<stop offset="0.29466" stop-color="#73E3FC"/>
<stop offset="0.351416" stop-color="#14B0D8"/>
<stop offset="0.4375" stop-color="#4583DF"/>
<stop offset="0.524342" stop-color="#51C0FF"/>
<stop offset="0.697495" stop-color="#244DDE"/>
<stop offset="0.793279" stop-color="#2454FF"/>
<stop offset="0.921875" stop-color="#0000A6"/>
</radialGradient>
</defs>
</svg>
