<svg width="14" height="19" viewBox="0 0 14 19" fill="none" xmlns="http://www.w3.org/2000/svg">
<path d="M7.93531 4.81787V0H0.850212C0.379053 0 0 0.379053 0 0.850212V17.2876C0 17.7588 0.379053 18.1378 0.850212 18.1378H12.7532C13.2243 18.1378 13.6034 17.7588 13.6034 17.2876V5.66808H8.78552C8.3179 5.66808 7.93531 5.28548 7.93531 4.81787ZM10.6436 12.3054L7.22786 15.6956C6.99228 15.9298 6.61181 15.9298 6.37623 15.6956L2.96051 12.3054C2.60094 11.9487 2.85317 11.3362 3.35904 11.3362H5.66808V8.50212C5.66808 8.18895 5.92172 7.93531 6.23489 7.93531H7.3685C7.68166 7.93531 7.93531 8.18895 7.93531 8.50212V11.3362H10.2443C10.7502 11.3362 11.0024 11.9487 10.6436 12.3054ZM13.3554 3.71968L9.88725 0.247978C9.72784 0.0885637 9.51174 0 9.28502 0H9.06892V4.53446H13.6034V4.31837C13.6034 4.09519 13.5148 3.87909 13.3554 3.71968Z" fill="white"/>
</svg>
