<svg width="168" height="45" viewBox="0 0 168 45" fill="none" xmlns="http://www.w3.org/2000/svg">
<g clip-path="url(#clip0_7_117)">
<path d="M13.0784 0.219246C9.45474 0.213926 5.88684 1.11776 2.69725 2.84906C3.47617 3.89623 3.89593 5.16985 3.89331 6.47804C3.89331 6.63381 3.88495 6.78817 3.8738 6.93973C6.64697 5.24438 9.82978 4.34919 13.0743 4.35201C22.8839 4.35201 30.866 12.3874 30.866 22.264C30.866 32.1405 22.8825 40.1759 13.0784 40.1759C9.83359 40.1786 6.65058 39.2824 3.87798 37.5854C3.89053 37.7496 3.90028 37.9137 3.90028 38.0807C3.90193 39.3792 3.48844 40.6438 2.72095 41.6873C5.65545 43.274 8.91082 44.1658 12.2394 44.295C15.5679 44.4243 18.8818 43.7875 21.929 42.4331C24.9762 41.0788 27.6763 39.0424 29.824 36.4791C31.9716 33.916 33.51 30.8932 34.3223 27.6413C35.1346 24.3893 35.1991 20.9935 34.5113 17.7126C33.8234 14.4316 32.4011 11.3519 30.3526 8.70767C28.3042 6.06347 25.6835 3.92452 22.6901 2.45358C19.6968 0.982636 16.4094 0.218477 13.0784 0.219246Z" fill="#1E1E37"/>
<path d="M2.90914 34.4405L3.39286 33.9536L4.84542 35.4144C4.90887 35.4786 4.98426 35.5294 5.06728 35.564C5.15027 35.5987 5.23927 35.6165 5.32914 35.6165C5.41901 35.6165 5.50801 35.5987 5.591 35.564C5.67402 35.5294 5.74941 35.4786 5.81286 35.4144L6.7803 34.4405C6.90816 34.3111 6.97994 34.136 6.97994 33.9536C6.97994 33.7711 6.90816 33.596 6.7803 33.4666L5.32775 32.0058L7.26402 30.0566L11.1352 33.955L8.71519 36.3911C8.58733 36.5205 8.51555 36.6957 8.51555 36.8781C8.51555 37.0605 8.58733 37.2357 8.71519 37.365L9.68263 38.3389C9.81116 38.4676 9.98506 38.5399 10.1663 38.5399C10.3476 38.5399 10.5215 38.4676 10.6501 38.3389L13.0784 35.9028L15.4984 38.3389C15.5619 38.4031 15.6373 38.4539 15.7202 38.4885C15.8033 38.5232 15.8922 38.541 15.9822 38.541C16.0721 38.541 16.161 38.5232 16.2441 38.4885C16.327 38.4539 16.4024 38.4031 16.4659 38.3389L17.4333 37.365C17.5611 37.2357 17.6329 37.0605 17.6329 36.8781C17.6329 36.6957 17.5611 36.5205 17.4333 36.3911L15.0133 33.955L18.8845 30.058L20.8208 32.0072L19.3682 33.468C19.2404 33.5974 19.1686 33.7724 19.1686 33.955C19.1686 34.1374 19.2404 34.3125 19.3682 34.4419L20.3356 35.4158C20.4642 35.5445 20.6381 35.6168 20.8194 35.6168C21.0006 35.6168 21.1746 35.5445 21.3031 35.4158L22.7556 33.955L23.2394 34.4419C23.3679 34.5706 23.5419 34.6429 23.7231 34.6429C23.9043 34.6429 24.0783 34.5706 24.2068 34.4419L25.1742 33.468C25.2379 33.4042 25.2884 33.3283 25.3228 33.2448C25.3573 33.1611 25.375 33.0716 25.375 32.9811C25.375 32.8906 25.3573 32.801 25.3228 32.7174C25.2884 32.6339 25.2379 32.558 25.1742 32.4941L24.6905 32.0072L26.1417 30.5449C26.2054 30.4811 26.2559 30.4052 26.2903 30.3217C26.3247 30.238 26.3424 30.1485 26.3424 30.058C26.3424 29.9675 26.3247 29.8779 26.2903 29.7943C26.2559 29.7108 26.2054 29.6349 26.1417 29.571L25.1687 28.5915C25.0401 28.4628 24.8662 28.3905 24.6849 28.3905C24.5037 28.3905 24.3298 28.4628 24.2012 28.5915L22.7501 30.0538L20.8138 28.1046L24.6849 24.2075L27.1049 26.6437C27.2335 26.7724 27.4074 26.8447 27.5887 26.8447C27.7699 26.8447 27.9439 26.7724 28.0724 26.6437L29.0398 25.6698C29.1042 25.6055 29.1554 25.5289 29.1902 25.4447C29.2251 25.3604 29.2431 25.27 29.2431 25.1786C29.2431 25.0873 29.2251 24.9969 29.1902 24.9126C29.1554 24.8284 29.1042 24.7517 29.0398 24.6875L26.6212 22.2513L29.0398 19.8166C29.1035 19.7527 29.154 19.6768 29.1884 19.5933C29.2229 19.5097 29.2406 19.4201 29.2406 19.3296C29.2406 19.2391 29.2229 19.1496 29.1884 19.0659C29.154 18.9824 29.1035 18.9065 29.0398 18.8427L28.0724 17.8674C27.9439 17.7387 27.7699 17.6664 27.5887 17.6664C27.4074 17.6664 27.2335 17.7387 27.1049 17.8674L24.6863 20.3119L20.8152 16.4191L22.7501 14.4713L24.2026 15.9322C24.3311 16.0609 24.5051 16.1331 24.6863 16.1331C24.8676 16.1331 25.0415 16.0609 25.1701 15.9322L26.1375 14.9583C26.2653 14.8289 26.3371 14.6538 26.3371 14.4713C26.3371 14.2889 26.2653 14.1137 26.1375 13.9844L24.6849 12.5221L25.1701 12.0352C25.2979 11.9058 25.3697 11.7307 25.3697 11.5482C25.3697 11.3657 25.2979 11.1906 25.1701 11.0613L24.2026 10.0874C24.0741 9.95865 23.9001 9.88639 23.7189 9.88639C23.5377 9.88639 23.3637 9.95865 23.2352 10.0874L22.7501 10.5743L21.3031 9.11346C21.1746 8.98475 21.0006 8.91249 20.8194 8.91249C20.6381 8.91249 20.4642 8.98475 20.3356 9.11346L19.3682 10.0874C19.3045 10.1512 19.254 10.2271 19.2196 10.3107C19.1852 10.3943 19.1675 10.4838 19.1675 10.5743C19.1675 10.6648 19.1852 10.7544 19.2196 10.8379C19.254 10.9215 19.3045 10.9974 19.3682 11.0613L20.8194 12.5221L18.8845 14.4713L15.0119 10.5743L17.4319 8.13956C17.4956 8.07568 17.5461 7.99979 17.5805 7.91622C17.615 7.83267 17.6327 7.74308 17.6327 7.65261C17.6327 7.56214 17.615 7.47255 17.5805 7.38899C17.5461 7.30543 17.4956 7.22954 17.4319 7.16566L16.4645 6.18333C16.4011 6.11926 16.3256 6.06843 16.2427 6.03374C16.1596 5.99907 16.0707 5.9812 15.9808 5.9812C15.8908 5.9812 15.8019 5.99907 15.7188 6.03374C15.6359 6.06843 15.5605 6.11926 15.497 6.18333L13.0784 8.62511L10.6529 6.18895C10.5894 6.12487 10.514 6.07404 10.431 6.03935C10.348 6.00468 10.259 5.98681 10.1691 5.98681C10.0793 5.98681 9.99027 6.00468 9.90727 6.03935C9.82426 6.07404 9.74887 6.12487 9.68542 6.18895L8.71797 7.16285C8.65432 7.22673 8.60383 7.30262 8.56937 7.38619C8.53493 7.46974 8.51718 7.55933 8.51718 7.6498C8.51718 7.74027 8.53493 7.82986 8.56937 7.91341C8.60383 7.99698 8.65432 8.07287 8.71797 8.13675L11.138 10.5715L7.26681 14.4685L5.33053 12.5193L6.78309 11.0585C6.91095 10.9291 6.98273 10.754 6.98273 10.5715C6.98273 10.389 6.91095 10.2139 6.78309 10.0846L5.81565 9.11065C5.75219 9.04658 5.67681 8.99575 5.59379 8.96106C5.51079 8.92638 5.4218 8.90852 5.33193 8.90852C5.24206 8.90852 5.15306 8.92638 5.07006 8.96106C4.98705 8.99575 4.91166 9.04658 4.84821 9.11065L3.39565 10.5715L2.91193 10.0846C2.87195 10.0449 2.82751 10.01 2.7795 9.98071C2.26248 10.7156 1.59029 11.3261 0.811159 11.7685C0.833564 11.833 0.865016 11.894 0.90456 11.9496C4.9667 13.4048 8.014 16.3995 8.91174 20.0271L11.1338 22.2639L8.92429 24.491C8.03073 28.1467 4.96809 31.1652 0.875282 32.6204C0.843225 32.6712 0.8188 32.7267 0.802795 32.7846C1.57699 33.2222 2.24611 33.8259 2.76277 34.5528C2.81627 34.5221 2.8655 34.4843 2.90914 34.4405ZM22.7501 22.2639L18.8789 26.161L15.0077 22.2639L18.8803 18.3669L22.7501 22.2639ZM9.2017 16.4191L13.0784 12.5207L16.9482 16.4177L13.0784 20.3119L9.2017 16.4191ZM13.0784 24.2118L16.9496 28.1088L13.0784 32.0072L9.20588 28.1088L13.0784 24.2118Z" fill="#1E1E37"/>
<path d="M42.0739 29.5848L35.0494 6.17105H40.3791L44.6469 22.9656H44.8919L49.1188 6.17105H54.4281L47.3627 29.5848V41.2814H42.0739V29.5848ZM57.5318 6.17105H62.8207V37.0879H70.029V41.2814H57.5318V6.17105ZM73.3778 6.17105H78.6667V41.2814H73.3778V6.17105ZM91.6946 41.6104C91.2862 41.6104 90.8097 41.5624 90.2652 41.4664C89.7207 41.3841 89.1557 41.1992 88.5704 40.9114C87.9986 40.6235 87.4336 40.2192 86.8754 39.6986C86.3174 39.1641 85.8136 38.4651 85.3644 37.6018C84.9288 36.7247 84.5749 35.6558 84.3025 34.3951C84.0302 33.1206 83.8942 31.6062 83.8942 29.8521V17.4153C83.8942 15.6476 84.0371 14.1401 84.323 12.893C84.6089 11.6322 84.99 10.577 85.4665 9.72731C85.943 8.86395 86.4875 8.17874 87.1001 7.67168C87.7263 7.16462 88.373 6.78089 89.04 6.52052C89.7071 6.24643 90.3673 6.06827 91.0208 5.98605C91.6742 5.90382 92.28 5.86272 92.8381 5.86272C94.2539 5.86272 95.4451 6.06143 96.4117 6.45885C97.3918 6.84257 98.1814 7.37704 98.7804 8.06225C99.3929 8.73376 99.8285 9.52175 100.087 10.4262C100.36 11.3307 100.496 12.29 100.496 13.3041C100.496 14.0579 100.448 14.7568 100.353 15.4009C100.271 16.0313 100.155 16.7302 100.006 17.4976H95.7787V15.8325C95.7787 11.9817 94.7509 10.0562 92.6951 10.0562C92.1371 10.0562 91.6538 10.1522 91.2454 10.344C90.8369 10.5359 90.4966 10.8648 90.2244 11.3307C89.9521 11.783 89.7479 12.3859 89.6117 13.1397C89.4892 13.8934 89.428 14.8321 89.428 15.9559V31.8666C89.428 32.963 89.4892 33.8743 89.6117 34.6005C89.7479 35.3269 89.9453 35.9094 90.2039 36.3479C90.4763 36.7865 90.8097 37.1016 91.2045 37.2935C91.613 37.4716 92.0963 37.5607 92.6544 37.5607C93.2398 37.5607 93.7434 37.4099 94.1654 37.1085C94.5875 36.7932 94.9346 36.3684 95.2068 35.8339C95.4791 35.2995 95.6765 34.6691 95.799 33.9428C95.9352 33.2164 96.0032 32.4284 96.0032 31.5787V26.9947H93.2874V23.5001H101.149V41.2814H97.6369L97.0651 37.9512C96.398 39.2532 95.6288 40.1919 94.7576 40.7675C93.9 41.3294 92.879 41.6104 91.6946 41.6104ZM106.05 6.17105H111.339V20.8689H117.608V6.17105H122.896V41.2814H117.608V25.0624H111.339V41.2814H106.05V6.17105ZM132.147 10.3646H126.531V6.17105H143.031V10.3646H137.436V41.2814H132.147V10.3646ZM145.257 34.1688C145.257 33.4151 145.297 32.7231 145.38 32.0926C145.474 31.4485 145.611 30.7565 145.787 30.0164H149.892V31.7227C149.892 32.6683 149.946 33.5042 150.055 34.2306C150.178 34.9568 150.369 35.5736 150.627 36.0806C150.898 36.574 151.253 36.9508 151.689 37.2112C152.138 37.4579 152.683 37.5813 153.323 37.5813C154.329 37.5813 155.099 37.3072 155.63 36.7589C156.161 36.1971 156.426 35.3817 156.426 34.3128C156.426 33.7645 156.385 33.2644 156.303 32.8121C156.236 32.3462 156.106 31.8871 155.915 31.4349C155.738 30.9826 155.493 30.5098 155.181 30.0164C154.867 29.5094 154.466 28.9475 153.976 28.3309L148.462 21.7322C147.482 20.4715 146.726 19.2039 146.195 17.9294C145.665 16.6411 145.399 15.2707 145.399 13.818C145.399 12.6532 145.576 11.5843 145.93 10.6112C146.298 9.63824 146.822 8.80227 147.503 8.10336C148.183 7.39073 149.021 6.84257 150.015 6.45885C151.021 6.06143 152.159 5.86272 153.424 5.86272C154.963 5.86272 156.242 6.08198 157.263 6.52052C158.298 6.95906 159.122 7.53463 159.734 8.24726C160.347 8.95988 160.775 9.76158 161.02 10.6524C161.28 11.5294 161.409 12.4134 161.409 13.3041C161.409 14.0579 161.348 14.7568 161.225 15.4009C161.117 16.0313 160.987 16.7302 160.836 17.4976H156.753V15.8325C156.753 13.9688 156.487 12.5435 155.956 11.5568C155.426 10.5564 154.561 10.0562 153.363 10.0562C152.369 10.0562 151.628 10.3372 151.137 10.899C150.648 11.4472 150.402 12.1872 150.402 13.1191C150.402 13.6125 150.436 14.0579 150.504 14.4553C150.586 14.8527 150.695 15.2227 150.832 15.5653C150.981 15.8943 151.158 16.2163 151.363 16.5315C151.566 16.8467 151.798 17.1757 152.057 17.5182L158.203 25.0007C159.32 26.467 160.177 27.8786 160.775 29.2353C161.374 30.5783 161.674 32.0037 161.674 33.5111C161.674 34.7581 161.476 35.8819 161.082 36.8823C160.701 37.8827 160.149 38.7324 159.428 39.4313C158.706 40.1303 157.835 40.6715 156.815 41.0553C155.793 41.4253 154.643 41.6104 153.363 41.6104C151.784 41.6104 150.47 41.3979 149.422 40.9731C148.388 40.5482 147.557 39.9863 146.931 39.2874C146.318 38.5884 145.883 37.7936 145.624 36.9029C145.38 36.0121 145.257 35.1008 145.257 34.1688Z" fill="#1E1E37"/>
</g>
<defs>
<clipPath id="clip0_7_117">
<rect width="166.584" height="44.0642" fill="white" transform="translate(0.802795 0.219238)"/>
</clipPath>
</defs>
</svg>
