<svg width="26" height="26" viewBox="0 0 26 26" fill="none" xmlns="http://www.w3.org/2000/svg">
<path d="M13 0.808167C6.09375 0.808167 0.5 6.40504 0.5 13.3082C0.5 18.8321 4.08125 23.5165 9.04687 25.1675C9.67187 25.2852 9.90104 24.8988 9.90104 24.5665C9.90104 24.2696 9.89062 23.4832 9.88542 22.4415C6.40833 23.1957 5.675 20.7644 5.675 20.7644C5.10625 19.3217 4.28437 18.9363 4.28437 18.9363C3.15208 18.1613 4.37187 18.1769 4.37187 18.1769C5.62708 18.2644 6.28646 19.4644 6.28646 19.4644C7.40104 21.3759 9.2125 20.8238 9.92708 20.504C10.0396 19.6957 10.3615 19.1446 10.7188 18.8321C7.94271 18.5196 5.025 17.4446 5.025 12.655C5.025 11.2905 5.50937 10.1759 6.31146 9.30087C6.17083 8.98525 5.74896 7.71442 6.42083 5.99254C6.42083 5.99254 7.46771 5.65712 9.85833 7.27379C10.8583 6.99567 11.9208 6.85817 12.9833 6.85192C14.0458 6.85817 15.1083 6.99567 16.1083 7.27379C18.4833 5.65712 19.5302 5.99254 19.5302 5.99254C20.2021 7.71442 19.7802 8.98525 19.6552 9.30087C20.4521 10.1759 20.9365 11.2905 20.9365 12.655C20.9365 17.4571 18.0146 18.5144 15.2333 18.8217C15.6708 19.1967 16.0771 19.9634 16.0771 21.1342C16.0771 22.8071 16.0615 24.1509 16.0615 24.5571C16.0615 24.8852 16.2802 25.2759 16.9208 25.1509C21.9219 23.5113 25.5 18.8238 25.5 13.3082C25.5 6.40504 19.9031 0.808167 13 0.808167" fill="white"/>
</svg>
