<svg width="30" height="31" viewBox="0 0 30 31" fill="none" xmlns="http://www.w3.org/2000/svg">
<path d="M15.0033 8.29965C10.7468 8.29965 7.31344 11.7338 7.31344 15.9913C7.31344 20.2488 10.7468 23.6829 15.0033 23.6829C19.2599 23.6829 22.6933 20.2488 22.6933 15.9913C22.6933 11.7338 19.2599 8.29965 15.0033 8.29965ZM15.0033 20.9918C12.2527 20.9918 10.0039 18.7493 10.0039 15.9913C10.0039 13.2333 12.246 10.9907 15.0033 10.9907C17.7607 10.9907 20.0028 13.2333 20.0028 15.9913C20.0028 18.7493 17.754 20.9918 15.0033 20.9918ZM24.8015 7.98502C24.8015 8.98246 23.9983 9.77907 23.0078 9.77907C22.0106 9.77907 21.2142 8.97576 21.2142 7.98502C21.2142 6.99428 22.0173 6.19098 23.0078 6.19098C23.9983 6.19098 24.8015 6.99428 24.8015 7.98502ZM29.8946 9.80584C29.7808 7.40263 29.232 5.27388 27.4718 3.52C25.7184 1.76612 23.5901 1.2172 21.1874 1.09671C18.7111 0.956127 11.2889 0.956127 8.8126 1.09671C6.41662 1.21051 4.28834 1.75943 2.52817 3.51331C0.767987 5.26718 0.225878 7.39594 0.10541 9.79915C-0.0351366 12.276 -0.0351366 19.6999 0.10541 22.1767C0.219186 24.5799 0.767987 26.7087 2.52817 28.4625C4.28834 30.2164 6.40993 30.7653 8.8126 30.8858C11.2889 31.0264 18.7111 31.0264 21.1874 30.8858C23.5901 30.772 25.7184 30.2231 27.4718 28.4625C29.2253 26.7087 29.7741 24.5799 29.8946 22.1767C30.0351 19.6999 30.0351 12.2827 29.8946 9.80584ZM26.6955 24.8343C26.1735 26.1464 25.1629 27.1572 23.8444 27.686C21.8701 28.4692 17.1852 28.2885 15.0033 28.2885C12.8215 28.2885 8.12995 28.4625 6.1623 27.686C4.85053 27.1639 3.83993 26.153 3.31121 24.8343C2.52817 22.8595 2.70887 18.1736 2.70887 15.9913C2.70887 13.809 2.53486 9.11634 3.31121 7.14825C3.83324 5.83619 4.84384 4.82537 6.1623 4.29653C8.13664 3.51331 12.8215 3.69405 15.0033 3.69405C17.1852 3.69405 21.8767 3.52 23.8444 4.29653C25.1562 4.81867 26.1668 5.8295 26.6955 7.14825C27.4785 9.12304 27.2978 13.809 27.2978 15.9913C27.2978 18.1736 27.4785 22.8662 26.6955 24.8343Z" fill="white"/>
</svg>
