<svg width="26" height="26" viewBox="0 0 26 26" fill="none" xmlns="http://www.w3.org/2000/svg">
<path d="M23.7143 0.808167H2.28013C1.29799 0.808167 0.5 1.61732 0.5 2.61062V24.0057C0.5 24.999 1.29799 25.8082 2.28013 25.8082H23.7143C24.6964 25.8082 25.5 24.999 25.5 24.0057V2.61062C25.5 1.61732 24.6964 0.808167 23.7143 0.808167ZM8.0558 22.2367H4.35045V10.3059H8.06138V22.2367H8.0558ZM6.20312 8.67647C5.01451 8.67647 4.05469 7.71107 4.05469 6.52803C4.05469 5.345 5.01451 4.3796 6.20312 4.3796C7.38616 4.3796 8.35156 5.345 8.35156 6.52803C8.35156 7.71665 7.39174 8.67647 6.20312 8.67647V8.67647ZM21.9453 22.2367H18.24V16.4332C18.24 15.0492 18.2121 13.2691 16.3147 13.2691C14.3839 13.2691 14.0882 14.7758 14.0882 16.3327V22.2367H10.3828V10.3059H13.9375V11.9354H13.9877C14.4844 10.9979 15.6953 10.0102 17.4978 10.0102C21.2478 10.0102 21.9453 12.4823 21.9453 15.6966V22.2367V22.2367Z" fill="white"/>
</svg>
