<svg width="30" height="31" viewBox="0 0 30 31" fill="none" xmlns="http://www.w3.org/2000/svg">
<path d="M29.1445 21.2077L22.5818 18.3952C22.3015 18.2757 21.9899 18.2505 21.694 18.3234C21.3981 18.3964 21.1339 18.5634 20.9412 18.7995L18.0349 22.3503C13.4737 20.1998 9.80303 16.5291 7.65248 11.9679L11.2033 9.06162C11.4399 8.86924 11.6073 8.60503 11.6802 8.309C11.7532 8.01296 11.7277 7.70122 11.6076 7.42096L8.79508 0.858346C8.66331 0.556236 8.43025 0.309574 8.13609 0.160892C7.84194 0.0122091 7.50512 -0.0291738 7.18372 0.0438785L1.08986 1.45015C0.779996 1.52171 0.503531 1.69618 0.305592 1.94509C0.107653 2.19401 -7.13808e-05 2.50266 3.54862e-08 2.82069C3.54862e-08 17.8502 12.1819 30.0087 27.188 30.0087C27.5061 30.0089 27.8149 29.9012 28.0639 29.7033C28.313 29.5053 28.4875 29.2288 28.5591 28.9188L29.9654 22.8249C30.038 22.502 29.9957 22.1638 29.8459 21.8686C29.696 21.5735 29.448 21.3398 29.1445 21.2077V21.2077Z" fill="white"/>
</svg>
