<svg width="135" height="45" viewBox="0 0 135 45" fill="none" xmlns="http://www.w3.org/2000/svg">
<path d="M2.31 10.76C2.75369 10.4377 3.23242 10.143 3.74618 9.87582C3.79288 9.85224 3.9038 9.79723 4.07895 9.71078C4.25409 9.62433 4.44675 9.53788 4.65692 9.45143C4.87877 9.36498 5.06559 9.30996 5.21738 9.28638C5.38085 9.25495 5.46258 9.29031 5.46258 9.39248C5.46258 9.69113 5.46258 9.98978 5.46258 10.2884C5.46258 10.4377 5.46258 10.5831 5.46258 10.7246C6.02305 10.4181 6.62437 10.147 7.26657 9.91119C8.11893 9.59682 8.9713 9.475 9.82367 9.54574C10.6877 9.61647 11.3182 9.98192 11.7152 10.6421C11.7386 10.7207 11.7152 10.7993 11.6452 10.8779C11.5868 10.9565 11.5167 11.0272 11.435 11.0901C11.4116 11.1136 11.3941 11.1294 11.3824 11.1372C10.9971 11.4516 10.5768 11.7384 10.1214 11.9978C10.0747 12.0292 9.94043 12.1 9.71858 12.21C9.50841 12.32 9.26905 12.4379 9.00049 12.5636C8.73194 12.6894 8.49257 12.7876 8.2824 12.8584C8.07223 12.9291 7.94379 12.933 7.89708 12.8702C7.51177 12.1157 6.7353 11.7542 5.56767 11.7856C5.53264 11.817 5.49761 11.8485 5.46258 11.8799C5.46258 12.4615 5.46258 13.0391 5.46258 13.6128C5.46258 13.77 5.46258 13.9272 5.46258 14.0844C5.43923 14.3909 5.43923 14.6974 5.46258 15.0039C5.46258 15.0118 5.46258 15.0275 5.46258 15.0511C5.47426 15.0668 5.4801 15.0786 5.4801 15.0864C5.49178 15.1022 5.49761 15.1179 5.49761 15.1336C5.52097 15.1886 5.54432 15.2436 5.56767 15.2986C5.64941 15.4715 5.77201 15.6287 5.93547 15.7702C6.23906 15.9981 6.58934 16.1356 6.98634 16.1828C7.38333 16.2221 7.792 16.2339 8.21234 16.2181C8.32911 16.2181 8.44587 16.2181 8.56263 16.2181C11.073 16.2181 13.058 16.2181 14.5175 16.2181C15.2415 16.2181 15.9654 16.2181 16.6893 16.2181C16.8294 16.2181 16.8703 16.2692 16.8119 16.3714C16.7535 16.4657 16.6484 16.5797 16.4966 16.7133C16.3449 16.8469 16.1931 16.9687 16.0413 17.0787C15.9012 17.1888 15.8078 17.2595 15.761 17.2909C15.294 17.5974 14.7919 17.8764 14.2548 18.1279C14.2315 18.1358 14.2023 18.1476 14.1672 18.1633C14.0388 18.234 13.8812 18.3087 13.6943 18.3873C13.5075 18.458 13.3382 18.4934 13.1864 18.4934C11.0964 18.4934 9.53176 18.4934 8.49257 18.4934C7.18483 18.4934 5.87125 18.4934 4.55184 18.4934C4.20155 18.4934 3.85126 18.4777 3.50097 18.4462C3.16236 18.4148 2.8471 18.344 2.5552 18.234C2.27497 18.124 2.04728 17.9511 1.87214 17.7153C1.72034 17.4953 1.63861 17.2634 1.62693 17.0198C1.60358 16.6111 1.60358 16.1985 1.62693 15.782C1.62693 15.5776 1.62693 15.3733 1.62693 15.169C1.62693 13.9193 1.62693 12.6697 1.62693 11.4201C1.62693 11.3258 1.68532 11.2276 1.80208 11.1254C1.93052 11.0233 2.05896 10.9289 2.18739 10.8425C2.2341 10.8111 2.27497 10.7836 2.31 10.76ZM5.76033 7.80101C5.21155 7.48664 4.65692 7.17227 4.09646 6.85791C3.99138 6.8029 3.88629 6.74395 3.7812 6.68108C3.71115 6.62606 3.7345 6.53568 3.85126 6.40994C3.9797 6.27633 4.14901 6.13487 4.35918 5.98554C4.58103 5.82836 4.78536 5.69083 4.97218 5.57294C5.17068 5.44719 5.30496 5.3686 5.37501 5.33716C5.37501 5.32931 5.37501 5.32538 5.37501 5.32538C5.81871 5.05817 6.29744 4.81846 6.81119 4.60626C6.82287 4.60626 6.83455 4.60233 6.84622 4.59448C6.9046 4.5709 6.9805 4.54339 7.07391 4.51195C7.16732 4.48052 7.26073 4.45694 7.35414 4.44122C7.45923 4.4255 7.54096 4.42943 7.59934 4.45301C7.73946 4.53946 7.87957 4.62198 8.01969 4.70057C8.53344 4.99136 9.0472 5.28608 9.56095 5.58473C9.64269 5.63974 9.61933 5.73405 9.49089 5.86766C9.37413 5.9934 9.20483 6.13487 8.98298 6.29205C8.7728 6.44137 8.56847 6.57891 8.36997 6.70466C8.18315 6.82254 8.05471 6.8972 7.98466 6.92864C7.98466 6.9365 7.98466 6.94043 7.98466 6.94043C7.54096 7.20764 7.06223 7.44342 6.54848 7.64775C6.5368 7.65561 6.52512 7.66347 6.51345 7.67133C6.45507 7.68705 6.37917 7.71456 6.28576 7.75385C6.19235 7.78529 6.0931 7.80887 5.98802 7.82458C5.89461 7.8403 5.81871 7.83244 5.76033 7.80101Z" fill="#1E1E37"/>
<path d="M19.9099 17.2909C19.8398 17.0001 19.8223 16.7015 19.8573 16.395C19.8573 16.3478 19.8573 16.3046 19.8573 16.2653C19.0166 16.8154 18.0708 17.2949 17.02 17.7035C16.3778 17.955 15.6889 18.1122 14.9533 18.1751C14.2294 18.2379 13.558 18.1751 12.9391 17.9865C12.3203 17.7978 11.8474 17.4442 11.5205 16.9255C11.1351 16.1946 11.0826 15.4558 11.3628 14.7092C11.6547 13.9626 12.1393 13.2867 12.8165 12.6815C13.8207 11.8327 14.9766 11.0822 16.2844 10.4299C16.5763 10.2806 16.8682 10.1352 17.1601 9.99371C17.2068 9.97013 17.2477 9.95048 17.2827 9.93476C17.306 9.9269 17.3528 9.90333 17.4228 9.86403C17.4695 9.84045 17.5162 9.81688 17.5629 9.7933C17.6096 9.76972 17.6505 9.75007 17.6855 9.73435C18.3627 9.13706 19.1567 8.63015 20.0675 8.21361C20.1259 8.19003 20.2368 8.15074 20.4003 8.09572C20.5754 8.03285 20.7505 7.97784 20.9257 7.93068C21.1008 7.88353 21.2234 7.87174 21.2935 7.89532C21.3635 7.91889 21.3285 8.00141 21.1884 8.14288C20.4061 8.89736 19.4895 9.57324 18.4386 10.1705C17.9949 10.422 17.5396 10.6657 17.0725 10.9014C16.804 11.035 16.5296 11.1686 16.2493 11.3023C16.2377 11.3101 16.2143 11.3219 16.1793 11.3376C16.1559 11.3533 16.1267 11.3691 16.0917 11.3848C16.0684 11.4005 16.0392 11.4162 16.0041 11.4319C15.9925 11.4398 15.975 11.4476 15.9516 11.4555C15.9516 11.4634 15.9516 11.4673 15.9516 11.4673C15.9516 11.4673 15.9458 11.4712 15.9341 11.4791C15.8173 11.6048 15.7122 11.7345 15.6188 11.8681C15.2452 12.4104 15.0525 12.9763 15.0409 13.5657C15.0292 14.1866 15.2685 14.7328 15.7589 15.2043C16.261 15.668 16.9908 15.9195 17.9482 15.9588C18.1701 15.9509 18.3861 15.9274 18.5963 15.8881C18.6313 15.8802 18.6663 15.8723 18.7014 15.8645C18.713 15.8645 18.7189 15.8606 18.7189 15.8527C18.8473 15.727 18.9641 15.6051 19.0692 15.4872C19.291 15.1886 19.507 14.89 19.7172 14.5913C19.7289 14.5834 19.7347 14.5717 19.7347 14.5559C19.7697 14.5088 19.8164 14.4616 19.8748 14.4145C19.8748 13.8015 19.8748 13.1884 19.8748 12.5754C19.8748 12.2768 19.8748 11.9742 19.8748 11.6677C19.8748 11.5734 19.9332 11.4752 20.05 11.373C20.1784 11.2708 20.3068 11.1804 20.4353 11.1018C20.482 11.0626 20.5229 11.0311 20.5579 11.0075C21.0016 10.6853 21.4803 10.3906 21.9941 10.1234C22.0408 10.0998 22.1517 10.0448 22.3268 9.95834C22.502 9.87189 22.6946 9.78544 22.9048 9.69899C23.115 9.61254 23.3018 9.55752 23.4653 9.53395C23.6287 9.50251 23.7105 9.54181 23.7105 9.65183C23.7105 10.2806 23.7105 10.9132 23.7105 11.5498C23.7105 12.4379 23.7105 13.326 23.7105 14.2141C23.7105 14.3005 23.7105 14.383 23.7105 14.4616C23.7105 14.6267 23.7105 14.7878 23.7105 14.945C23.7105 14.9607 23.7105 14.9764 23.7105 14.9921C23.7105 14.9921 23.7105 14.9961 23.7105 15.0039C23.7105 15.0039 23.7105 15.0157 23.7105 15.0393C23.7222 15.055 23.728 15.0746 23.728 15.0982C23.7397 15.1297 23.7455 15.1572 23.7455 15.1807C23.7572 15.2043 23.7689 15.224 23.7805 15.2397C23.9557 15.6562 24.3352 15.9509 24.919 16.1238C25.2926 16.2024 25.6838 16.2339 26.0924 16.2181C26.1742 16.2181 26.2501 16.2181 26.3201 16.2181C27.3827 16.2181 28.4394 16.2181 29.4902 16.2181C29.6303 16.2181 29.6712 16.2692 29.6128 16.3714C29.5544 16.4657 29.4494 16.5797 29.2976 16.7133C29.1458 16.8469 28.994 16.9687 28.8422 17.0787C28.6904 17.1888 28.5912 17.2595 28.5444 17.2909C28.0891 17.5974 27.5928 17.8764 27.0557 18.1279C27.0324 18.1358 27.0032 18.1476 26.9682 18.1633C26.8397 18.2262 26.6762 18.2969 26.4777 18.3755C26.2909 18.4541 26.1275 18.4934 25.9873 18.4934C25.5904 18.4934 25.1934 18.4934 24.7964 18.4934C23.9907 18.4934 23.1909 18.4934 22.3969 18.4934C21.7781 18.4934 21.2409 18.3991 20.7856 18.2104C20.3302 18.0218 20.0383 17.7153 19.9099 17.2909Z" fill="#1E1E37"/>
<path d="M29.6633 2.10706C30.0369 1.79269 30.4514 1.50583 30.9068 1.24648C30.9652 1.21504 31.0936 1.14431 31.2921 1.03428C31.5023 0.916397 31.7416 0.798509 32.0102 0.680622C32.2787 0.554876 32.5181 0.460566 32.7283 0.397693C32.9385 0.326961 33.0727 0.319102 33.1311 0.374116C33.785 1.34079 34.6841 2.18565 35.8283 2.90869C37.0427 3.61601 38.4029 4.15829 39.9092 4.53553C40.458 4.677 41.0184 4.81453 41.5906 4.94814C42.7115 5.19963 43.7857 5.50221 44.8132 5.85587C45.8524 6.20167 46.7106 6.6968 47.3878 7.34125C48.1818 8.20575 48.4153 9.08598 48.0884 9.98192C47.7731 10.87 47.1251 11.6638 46.1443 12.3632C45.2686 13.0155 44.2352 13.5971 43.0443 14.108C43.5113 14.6895 43.7974 15.3143 43.9025 15.9824C43.9375 16.2103 43.9608 16.4461 43.9725 16.6897C43.9959 17.0905 44.0543 17.4874 44.1477 17.8804C44.2527 18.2655 44.4921 18.623 44.8658 18.9531C45.2044 19.2518 45.6422 19.4325 46.1793 19.4954C46.4946 19.2989 46.8215 19.1103 47.1601 18.9296C47.1835 18.9138 47.2886 18.8628 47.4754 18.7763C47.6622 18.6898 48.527 17.6929 48.7489 17.6064C48.9824 17.5199 48.7248 18.0926 48.8765 18.069C49.1547 17.7271 49.04 18.0375 48.8765 18.4462C48.7131 18.8549 48.4095 19.2243 47.9658 19.5544C47.5338 19.8923 47.0842 20.1949 46.6172 20.4621C46.1735 20.7293 45.6948 20.9808 45.181 21.2166C44.6673 21.4523 44.1185 21.6213 43.5347 21.7235C42.6823 21.8492 41.9759 21.7431 41.4154 21.4052C40.8666 21.0672 40.5105 20.6311 40.347 20.0966C40.2303 19.6958 40.1661 19.2911 40.1544 18.8824C40.1427 18.5602 40.1077 18.2379 40.0493 17.9157C39.9092 17.342 39.6348 16.8037 39.2261 16.3007C38.6773 15.6405 37.9651 15.0864 37.0894 14.6385C36.8208 15.4637 36.3012 16.1946 35.5306 16.8312C34.7716 17.4599 33.8784 18.0218 32.8509 18.5169C32.0219 18.9413 31.1053 19.2518 30.1011 19.4483C29.1086 19.6526 28.122 19.5897 27.1412 19.2596C26.3822 18.961 25.8335 18.5445 25.4948 18.01C25.1679 17.4678 25.1154 16.9098 25.3372 16.336C25.4773 16.061 25.7342 15.8055 26.1078 15.5698C26.4815 15.3261 26.8493 15.11 27.2113 14.9214C27.3047 14.8821 27.3864 14.8428 27.4565 14.8035C27.4915 14.7878 27.6024 14.7406 27.7892 14.662C27.976 14.5756 28.1804 14.4891 28.4022 14.4027C28.6358 14.3084 28.8284 14.2494 28.9802 14.2259C29.1437 14.1944 29.2079 14.2259 29.1729 14.3202C28.9393 14.9646 29.0736 15.5737 29.5757 16.1474C30.0778 16.7133 30.8075 17.0787 31.765 17.2438C32.1853 17.2988 32.6057 17.3066 33.026 17.2673C33.1778 16.9373 33.2829 16.6032 33.3413 16.2653C33.4931 15.0707 33.5164 13.8604 33.4113 12.6344C33.388 12.1707 33.3705 11.707 33.3588 11.2433C33.3471 10.2295 33.3296 9.21565 33.3063 8.20182C33.2946 7.40019 33.2829 6.59856 33.2712 5.79692C31.5315 4.97957 30.2121 3.91466 29.313 2.60218C29.278 2.53145 29.2955 2.45679 29.3655 2.3782C29.4356 2.29175 29.5115 2.21708 29.5932 2.15421C29.6166 2.13849 29.6399 2.12278 29.6633 2.10706ZM41.2928 8.19003C40.1018 7.75778 38.8583 7.40019 37.5623 7.11726C37.4338 7.08582 37.2995 7.05439 37.1594 7.02295C37.1594 7.27444 37.1653 7.52987 37.1769 7.78922C37.1769 8.04857 37.1828 8.30792 37.1945 8.56727C37.2178 8.56727 37.2353 8.57906 37.247 8.60264C37.3988 8.81484 37.5506 9.03882 37.7024 9.2746C38.0877 9.90333 38.5489 10.5046 39.086 11.0783C39.6231 11.652 40.3412 12.0842 41.2403 12.375C42.1393 12.6265 43.0793 12.6776 44.0601 12.5283C44.1418 12.4025 44.2119 12.265 44.2703 12.1157C44.5155 11.2669 44.3462 10.5046 43.7623 9.82866C43.1902 9.15278 42.367 8.60657 41.2928 8.19003Z" fill="#1E1E37"/>
<path d="M63.534 16.1592C63.6624 16.1671 63.6975 16.2221 63.6391 16.3242C63.5807 16.4186 63.4756 16.5325 63.3238 16.6661C63.172 16.7997 63.0202 16.9215 62.8684 17.0316C62.7283 17.1416 62.6349 17.2123 62.5882 17.2438C62.1212 17.5503 61.6249 17.8253 61.0995 18.069C61.0645 18.0847 61.0353 18.1004 61.0119 18.1161C60.8718 18.179 60.7083 18.2497 60.5215 18.3283C60.3464 18.3991 60.1829 18.4344 60.0311 18.4344C57.8126 18.4344 56.0378 18.4462 54.7067 18.4698C54.263 18.4698 53.8193 18.4737 53.3756 18.4816C52.535 18.4894 51.6884 18.4934 50.8361 18.4934C50.0304 18.5248 49.2539 18.4462 48.5066 18.2576C47.8995 18.0375 47.4791 17.7192 47.2456 17.3027C47.0121 16.8783 46.872 16.4461 46.8253 16.006C46.7319 15.4637 46.7143 14.9253 46.7727 14.3909C46.8428 13.8486 47.0296 13.326 47.3332 12.823C47.7302 12.2021 48.2673 11.6402 48.9445 11.1372C49.6217 10.6342 50.3573 10.1823 51.1513 9.78151C51.7702 9.43571 52.4591 9.13706 53.218 8.88557C53.9886 8.62622 54.7885 8.52012 55.6175 8.56727C56.248 8.62229 56.826 8.77161 57.3514 9.01524C57.8885 9.25102 58.2855 9.56931 58.5424 9.97013C58.7876 10.4181 58.8051 10.8543 58.5949 11.2787C58.3964 11.7031 58.0753 12.0921 57.6316 12.4458C56.9894 12.9959 56.2246 13.5107 55.3372 13.9901C54.4615 14.4695 53.5274 14.831 52.535 15.0746C52.0913 15.1768 51.6417 15.2475 51.1863 15.2868C51.3498 15.499 51.5775 15.6837 51.8694 15.8409C52.2664 16.0374 52.7043 16.1553 53.183 16.1946C53.6734 16.226 54.1638 16.2339 54.6542 16.2181C54.8177 16.2181 54.9694 16.2181 55.1096 16.2181C56.1487 16.2103 57.6258 16.1985 59.5407 16.1828C60.8718 16.1671 62.2029 16.1592 63.534 16.1592ZM53.218 11.1018C52.751 10.9289 52.2547 10.8386 51.7293 10.8307C51.6943 10.8307 51.6184 10.8386 51.5016 10.8543C51.3848 10.8621 51.2506 10.8779 51.0988 10.9014C50.9703 11.1215 50.8711 11.3494 50.801 11.5852C50.6376 12.0725 50.5617 12.5676 50.5733 13.0706C50.7718 12.992 50.9411 12.9527 51.0813 12.9527C51.1046 12.9527 51.1338 12.9527 51.1688 12.9527C52.4065 13.0863 53.6442 13.102 54.8819 12.9998C54.9169 12.8584 54.9169 12.709 54.8819 12.5519C54.66 11.8996 54.1054 11.4162 53.218 11.1018ZM50.4858 10.9957C50.4507 10.9957 50.4332 10.9997 50.4332 11.0075C50.4332 11.0075 50.4507 11.0036 50.4858 10.9957ZM53.9361 5.50221C53.9711 5.52578 53.9828 5.55329 53.9711 5.58473C54.2514 5.41183 54.4323 5.3018 54.5141 5.25464C54.5141 5.25464 54.5199 5.25071 54.5316 5.24285C54.9753 4.97564 55.454 4.73987 55.9678 4.53553C55.9794 4.52767 55.9911 4.52374 56.0028 4.52374C56.0495 4.50017 56.1196 4.47266 56.213 4.44122C56.3181 4.40193 56.4173 4.37442 56.5107 4.3587C56.6041 4.34298 56.68 4.35084 56.7384 4.38228C57.0186 4.53946 57.2989 4.69664 57.5791 4.85383C57.9527 5.06602 58.3322 5.28215 58.7175 5.50221C58.7993 5.55722 58.7759 5.65153 58.6475 5.78514C58.519 5.91088 58.3439 6.05235 58.122 6.20953C57.9119 6.35885 57.7075 6.49639 57.509 6.62213C57.3222 6.74002 57.1996 6.81861 57.1412 6.85791C57.1296 6.85791 57.1237 6.85791 57.1237 6.85791C56.68 7.12512 56.2013 7.36482 55.6875 7.57702C55.6759 7.57702 55.6642 7.58095 55.6525 7.58881C55.6058 7.61239 55.5299 7.63989 55.4248 7.67133C55.3314 7.70277 55.238 7.72634 55.1446 7.74206C55.0512 7.75778 54.9753 7.75385 54.9169 7.73027C54.2514 7.35303 53.5917 6.97973 52.9378 6.61035C52.9028 6.58677 52.8852 6.55533 52.8852 6.51604C52.7568 6.60249 52.64 6.67715 52.535 6.74002C52.4415 6.79504 52.3773 6.83433 52.3423 6.85791C51.8986 7.12512 51.4199 7.36482 50.9061 7.57702C50.8944 7.57702 50.8828 7.58095 50.8711 7.58881C50.8127 7.61239 50.7368 7.63989 50.6434 7.67133C50.55 7.70277 50.4507 7.72634 50.3457 7.74206C50.2522 7.75778 50.1763 7.75385 50.118 7.73027C49.5225 7.38447 48.927 7.0426 48.3315 6.70466C48.2731 6.67322 48.2147 6.64178 48.1564 6.61035C48.0746 6.55533 48.0921 6.46102 48.2089 6.32742C48.3373 6.19381 48.5066 6.05235 48.7168 5.90302C48.9387 5.74584 49.1488 5.60831 49.3473 5.49042C49.5458 5.36467 49.6743 5.28608 49.7327 5.25464C49.7327 5.25464 49.7327 5.25071 49.7327 5.24285C50.1763 4.97564 50.6609 4.73987 51.1863 4.53553C51.1863 4.52767 51.1922 4.52374 51.2039 4.52374C51.2622 4.50017 51.3381 4.47266 51.4315 4.44122C51.525 4.40193 51.6184 4.37442 51.7118 4.3587C51.8169 4.34298 51.8986 4.35084 51.957 4.38228C52.6108 4.75166 53.2706 5.12497 53.9361 5.50221Z" fill="#1E1E37"/>
<path d="M20.3963 32.9767C20.3963 35.8793 19.0833 38.2827 16.4573 40.187C14.1358 41.8878 11.624 42.7383 8.9219 42.7383C8.0656 42.7383 6.73359 42.6736 4.92585 42.5441C3.3084 42.4332 1.99541 42.3962 0.98688 42.4332C0.967851 42.3962 1.07251 42.313 1.30086 42.1836C1.5292 42.0542 1.68143 41.8971 1.75755 41.7122C2.08104 40.9727 2.24278 38.8743 2.24278 35.4171V27.6522C2.24278 25.5261 1.99541 24.3521 1.50066 24.1303C1.21523 24.0933 0.853679 23.9824 0.416016 23.7975C1.50066 23.7236 2.22375 23.6866 2.5853 23.6866C2.94685 23.6866 3.4416 23.6496 4.06955 23.5757C4.71653 23.4832 5.17322 23.437 5.43962 23.437L10.0065 23.2983C12.937 23.2983 15.4012 24.2042 17.3992 26.016C19.3973 27.8278 20.3963 30.1481 20.3963 32.9767ZM17.0567 34.8625C17.0567 32.5145 16.5049 30.4439 15.4012 28.6506C14.0311 26.4875 11.9855 25.0177 9.26442 24.2412C8.00852 23.8899 7.01902 23.7143 6.29592 23.7143C5.57283 23.7143 5.23031 23.7236 5.26837 23.742L5.09711 27.4581L5.04002 39.4937C5.07808 39.9004 5.13516 40.5012 5.21128 41.2962C5.47768 41.4626 6.17223 41.6382 7.29493 41.8231C8.43666 42.008 9.28345 42.1004 9.83528 42.1004C12.1949 42.1004 13.9836 41.4719 15.2014 40.2147C16.4383 38.9575 17.0567 37.1734 17.0567 34.8625Z" fill="#1E1E37"/>
<path d="M38.2414 41.2962C37.8037 41.6105 37.4136 42.1097 37.0711 42.7937C36.7857 43.3299 36.5098 43.866 36.2434 44.4022C36.2243 44.1433 36.1577 43.7921 36.0435 43.3484C35.7962 42.8677 34.664 42.6273 32.6469 42.6273L24.6263 42.8215C24.7595 42.6181 24.8831 42.1189 24.9973 41.3239C25.1305 40.529 25.1971 39.8634 25.1971 39.3273L25.3969 36.0549V32.6162C25.3969 32.5977 25.3874 32.4221 25.3684 32.0893C25.3493 31.7565 25.3398 31.5716 25.3398 31.5347V29.7876C25.3398 29.2884 25.3018 28.4102 25.2257 27.153C25.1305 25.4522 25.0163 24.5463 24.8831 24.4353C24.6167 24.232 24.3218 24.121 23.9983 24.1026C23.4465 24.0656 23.1515 24.0471 23.1135 24.0471C23.1135 24.0286 23.123 24.0009 23.142 23.9639C23.161 23.9084 23.1705 23.8715 23.1705 23.853L36.4431 23.4093C36.1767 23.8345 35.8818 24.4168 35.5583 25.1564C35.5012 25.2858 35.4156 25.5076 35.3014 25.8219C35.2824 25.8219 35.2443 25.8127 35.1872 25.7942C35.1492 25.7757 35.1206 25.7665 35.1016 25.7665C35.1587 25.6555 35.1872 25.5446 35.1872 25.4337C35.1872 25.1194 34.9208 24.8606 34.388 24.6572C33.9694 24.4723 33.5888 24.3799 33.2463 24.3799C33.1321 24.3799 33.056 24.4168 33.018 24.4908C32.5232 24.232 31.4576 24.1026 29.8211 24.1026C29.2122 24.1026 28.8221 24.1395 28.6508 24.2135C28.4986 24.2689 28.413 24.537 28.394 25.0177C28.3749 25.3875 28.3654 25.7572 28.3654 26.127C28.3274 27.1068 28.2512 28.5674 28.1371 30.5086C28.1371 31.4884 28.1276 32.0431 28.1085 32.1725C28.6984 32.2649 29.5357 32.3111 30.6203 32.3111C32.409 32.3111 34.1026 32.0431 35.701 31.5069C35.7771 31.5809 35.8152 31.6456 35.8152 31.701C35.8152 31.738 35.682 32.08 35.4156 32.7271C35.1111 33.4481 34.9399 33.8826 34.9018 34.0305C34.8067 34.0305 34.7115 33.9381 34.6164 33.7532C34.5403 33.5498 34.4546 33.4112 34.3595 33.3372C33.7315 32.949 32.2663 32.7548 29.9638 32.7548C29.7736 32.7548 29.1932 32.8103 28.2227 32.9212C28.1276 33.0691 28.08 33.2448 28.08 33.4481V39.6046C28.08 39.6231 28.0895 39.7802 28.1085 40.076C28.1276 40.3533 28.1371 40.5567 28.1371 40.6861C28.1371 41.0374 28.1656 41.3424 28.2227 41.6013C29.1741 41.8601 30.4586 41.9895 32.076 41.9895H33.2749C33.8647 41.9895 34.7115 41.8786 35.8152 41.6567C36.9379 41.4164 37.6515 41.1945 37.9559 40.9912L38.2128 41.0466L38.2414 41.2962Z" fill="#1E1E37"/>
<path d="M65.8393 42.5719C65.7252 42.6458 65.4683 42.6828 65.0687 42.6828L61.6435 42.8215C60.8443 42.8215 60.4447 42.6643 60.4447 42.35C60.4447 42.2761 60.4637 42.1651 60.5018 42.0172L60.3876 32.3666L60.0165 26.9035C58.6464 29.7691 57.2859 32.6347 55.9348 35.5003C53.7656 39.9374 52.424 42.1559 51.9102 42.1559C51.72 42.1559 50.5021 40.1038 48.2567 35.9995C45.5356 31.0262 43.8991 28.1052 43.3473 27.2362C43.0618 29.4178 42.9191 30.9246 42.9191 31.7565L42.5195 37.6356C42.5385 37.6726 42.5385 38.0978 42.5195 38.9113C42.4815 39.6693 42.7669 40.4365 43.3758 41.213C43.9847 41.971 44.6888 42.3685 45.488 42.4055C45.45 42.5534 45.3168 42.6273 45.0884 42.6273C45.0504 42.6273 44.7173 42.6181 44.0894 42.5996C43.4805 42.5626 43.1475 42.5441 43.0904 42.5441C41.9677 42.5441 41.0162 42.6643 40.2361 42.9047C40.3312 42.5534 40.5025 42.0635 40.7498 41.4349C40.9782 40.8618 41.1494 40.3071 41.2636 39.771C41.3968 39.0684 41.6347 37.3306 41.9772 34.5574C42.3958 31.1187 42.6051 28.7153 42.6051 27.3472C42.6051 25.3135 41.863 24.0471 40.3788 23.5479C40.4549 23.474 40.7023 23.437 41.1209 23.437C41.4254 23.4185 41.8155 23.4277 42.2912 23.4647C42.7859 23.5017 43.0238 23.5202 43.0047 23.5202L45.117 23.3261C45.3072 23.3261 45.4595 23.474 45.5736 23.7698C46.3348 25.8404 47.6288 28.5581 49.4555 31.9229C51.092 34.9179 52.4716 37.2381 53.5943 38.8836C53.8607 38.5693 54.5077 37.2566 55.5352 34.9457C56.3535 33.1154 57.1717 31.2851 57.9899 29.4548C58.8843 27.4766 59.5408 25.637 59.9594 23.9362C61.4056 23.8067 62.6996 23.7051 63.8413 23.6311C63.8413 23.7051 63.7271 23.816 63.4988 23.9639C63.3656 24.0378 63.28 24.3244 63.2419 24.8236C63.1658 25.5816 63.1277 25.9883 63.1277 26.0438L63.1563 32.5053C63.2514 34.6683 63.3275 36.1843 63.3846 37.0533C63.5368 38.902 63.7462 40.4088 64.0126 41.5735C64.1077 41.9618 64.4122 42.2021 64.926 42.2946C65.4588 42.3685 65.7632 42.4609 65.8393 42.5719Z" fill="#1E1E37"/>
<path d="M90.9253 31.5901C90.9253 34.5851 90.0119 37.2012 88.1851 39.4382C86.149 41.9525 83.4945 43.2097 80.2216 43.2097H79.6221C76.9581 43.2097 74.7603 42.5626 73.0287 41.2685C70.9926 39.771 69.7652 37.4877 69.3466 34.4188C69.2895 34.0305 69.2895 33.6145 69.3466 33.1708C69.7842 29.6212 71.1258 26.9682 73.3712 25.2118C75.3121 23.7143 77.8049 22.9656 80.8495 22.9656C83.818 22.9656 86.2347 23.7698 88.0995 25.3782C89.9833 26.9867 90.9253 29.0573 90.9253 31.5901ZM88.128 34.9457C88.128 32.2464 87.2527 29.7968 85.5021 27.5967C83.5231 25.1748 81.0303 23.9639 78.0237 23.9639C76.0447 23.9639 74.4749 24.6202 73.3141 25.9328C72.2104 27.153 71.6586 28.6875 71.6586 30.5363C71.6586 32.6439 72.239 34.5667 73.3997 36.3045C74.6176 38.1533 76.3968 39.6416 78.7373 40.7693C80.2025 41.4719 81.4204 41.8231 82.3908 41.8231H82.9617C84.3128 41.8231 85.4925 41.3332 86.5011 40.3533C87.5477 39.2995 88.0805 37.9961 88.0995 36.4432C88.0995 35.981 88.109 35.602 88.128 35.3062C88.128 35.0289 88.128 34.9087 88.128 34.9457Z" fill="#1E1E37"/>
<path d="M117.875 23.4925C117.704 23.6219 117.314 23.7605 116.705 23.9084C116.001 24.0563 115.535 24.195 115.306 24.3244C114.907 28.3178 114.707 30.4346 114.707 30.675V31.9784C114.707 32.4406 114.602 34.3263 114.393 37.6356C114.279 39.3365 114.165 41.0374 114.05 42.7383C114.012 42.7752 113.955 42.7937 113.879 42.7937C113.822 42.7937 113.337 42.3593 112.423 41.4903C109.017 38.2365 106.363 35.6574 104.46 33.7532C101.529 30.8321 99.4648 28.7892 98.266 27.6245C98.1328 30.0094 98.1233 32.9859 98.2375 36.5541C98.2375 37.2936 98.3326 38.523 98.5229 40.2424C98.58 40.5752 98.6276 40.7878 98.6656 40.8802C98.7417 41.0651 98.8559 41.2038 99.0081 41.2962C99.4839 41.555 99.9691 41.6845 100.464 41.6845C100.787 41.6845 101.292 41.7399 101.977 41.8508C101.958 41.8508 101.235 41.9988 99.8073 42.2946C98.7608 42.4979 97.8854 42.5996 97.1814 42.5996C96.2299 42.5996 95.5068 42.5441 95.0121 42.4332C95.0501 42.3962 95.3546 42.1836 95.9255 41.7954C96.306 41.5366 96.5534 41.2223 96.6676 40.8525C97.0672 39.4659 97.267 37.044 97.267 33.5868V32.0338L97.4668 28.6506C97.4668 27.4119 97.3241 26.4967 97.0387 25.9051C96.601 24.9992 95.7066 24.2597 94.3556 23.6866C95.5354 23.5572 97.267 23.4185 99.5505 23.2706C101.054 25.5076 103.271 28.1329 106.201 31.1464C107.324 32.2742 109.721 34.5944 113.394 38.1071C113.451 38.0331 113.48 37.9222 113.48 37.7743L113.337 33.5036C113.223 31.4145 113.109 29.3808 112.994 27.4026C112.975 26.7556 112.899 25.7849 112.766 24.4908C112.747 24.3799 112.623 24.3244 112.395 24.3244C112.395 24.3244 112.157 24.3429 111.681 24.3799C111.206 24.3984 110.854 24.4076 110.625 24.4076C110.758 24.3152 111.272 24.121 112.167 23.8252C113.175 23.4925 113.879 23.3261 114.279 23.3261L117.875 23.4925Z" fill="#1E1E37"/>
<path d="M134.077 36.9146C134.077 38.9113 133.307 40.455 131.765 41.5458C130.433 42.4887 128.825 42.9601 126.941 42.9601C126.903 42.9601 126.485 42.9416 125.686 42.9047C124.886 42.8677 124.468 42.8492 124.43 42.8492C124.277 42.8492 123.735 42.7475 122.803 42.5441C121.794 42.3223 121.29 42.1744 121.29 42.1004C121.29 42.1004 121.337 41.8508 121.433 41.3517C121.566 40.7786 121.651 40.1592 121.69 39.4937C121.67 39.2533 121.709 38.939 121.804 38.5508C121.842 38.5693 121.984 38.976 122.232 39.771C122.46 40.4735 123.278 41.0836 124.687 41.6013C125.847 42.0265 126.837 42.2391 127.655 42.2391C128.721 42.2391 129.634 41.971 130.395 41.4349C131.271 40.8248 131.708 39.9836 131.708 38.9113C131.708 37.6171 131.204 36.5356 130.195 35.6667C129.491 35.0751 128.359 34.465 126.799 33.8364C124.972 33.0969 123.811 32.5792 123.316 32.2834C122.727 31.9137 122.251 31.396 121.889 30.7304C121.547 30.0649 121.376 29.427 121.376 28.8169C121.376 27.1161 122.27 25.7387 124.059 24.6849C125.524 23.8345 127.065 23.4093 128.683 23.4093L133.592 23.6034V23.9084C133.592 23.9084 133.506 24.1488 133.335 24.6295C133.145 25.1656 133.031 25.6001 132.993 25.9328C132.974 26.2471 132.936 26.7278 132.878 27.3749C132.764 27.3194 132.698 27.1715 132.679 26.9312C132.641 26.6169 132.612 26.4413 132.593 26.4043C131.832 24.8513 130.291 24.0748 127.969 24.0748C125.419 24.0748 124.144 25.0362 124.144 26.9589C124.144 28.1976 124.677 29.1682 125.743 29.8707C126.542 30.3884 127.845 31.0262 129.653 31.7842C131.175 32.4128 132.222 33.0044 132.793 33.5591C133.649 34.3725 134.077 35.491 134.077 36.9146Z" fill="#1E1E37"/>
</svg>
