<svg width="63" height="46" viewBox="0 0 63 46" fill="none" xmlns="http://www.w3.org/2000/svg">
<path d="M55.6242 41.7257C56.213 38.9948 56.4002 40.8591 59.6719 40.1545C59.0089 42.3165 57.8001 39.8657 58.7789 43.7038C59.0362 44.671 57.8976 44.8942 57.804 43.8964C57.4843 43.0561 57.7182 41.3362 56.6732 41.3274C56.6147 41.8088 56.5601 42.2946 56.4938 42.776C56.4782 43.3362 56.1545 44.7848 55.6515 43.7694C55.5774 43.1655 55.1914 42.8548 54.8131 42.404C54.8443 43.1961 54.8716 43.8745 54.8989 44.5441C54.4193 44.6841 54.197 44.5835 54.1424 44.1283C54.0644 42.0539 52.7503 38.9423 55.6242 41.7257Z" fill="#1E1E37"/>
<path d="M31.5567 40.439C32.8708 40.4434 34.7777 39.5637 35.1871 41.5068C35.2846 41.7081 35.3977 42.1852 35.6551 42.0889C35.7915 41.3755 35.928 40.6622 36.0606 39.9488C36.6377 40.1151 36.938 40.5484 36.8171 41.1523C36.1425 44.2246 35.8266 45.9795 34.454 41.8569C34.2279 40.951 33.5961 40.9073 32.7695 41.1917C32.4614 41.3405 32.75 41.7738 33.0424 41.6775C33.4636 41.4587 34.1187 41.9051 33.639 42.3602C33.3349 42.4871 32.8747 42.7103 32.9293 43.1348C33.1906 43.5944 33.5922 43.4281 34.0602 43.2443C34.2981 44.3953 33.8067 44.0583 33.0697 44.2071C32.5667 44.4215 32.4029 44.3427 32.2781 43.7257C32.0208 42.5747 32.0052 41.5593 31.5567 40.439Z" fill="#1E1E37"/>
<path d="M18.3025 43.1261C18.0685 43.7213 17.8345 44.3165 17.585 44.9423C17.1014 44.4259 16.5516 41.1567 16.8675 40.369C17.156 41.0998 17.3978 41.7081 17.6396 42.3121C18.4584 41.9795 17.7643 38.5571 19.5425 42.5178C19.7063 41.73 19.8661 40.9554 20.0611 40.0145C20.2249 40.2508 20.3653 40.3646 20.3614 40.4652C20.3068 41.8438 20.7552 43.962 19.3397 44.7147C18.9771 44.2596 18.8445 43.1917 18.3025 43.1261Z" fill="#1E1E37"/>
<path d="M39.1841 44.102C37.7062 45.9183 37.4722 44.2421 37.094 42.7278C37.48 42.3952 37.3162 41.8963 37.1213 41.3755C36.8756 40.7322 36.9302 40.6272 37.5346 40.5265C38.0571 40.5353 39.2699 39.9182 39.3439 40.8285C39.2426 41.428 38.6303 41.5856 38.1468 41.5987C38.2326 42.404 38.2326 42.404 38.8565 42.2946C39.1373 42.2464 39.4492 42.2464 39.4921 42.6097C39.4999 43.0604 39.0749 43.3887 38.7044 43.52C38.178 43.9314 38.7395 44.0889 39.1841 44.102Z" fill="#1E1E37"/>
<path d="M23.1534 43.5988C22.51 43.6557 21.8666 43.7126 21.114 43.7738C21.1023 43.7213 21.0204 43.5375 21.0165 43.3537C21.0945 42.5791 20.7318 41.0911 21.2544 40.5572C21.7574 40.3646 22.315 39.962 22.8063 40.3952C22.705 40.5615 22.6348 40.7935 22.4944 40.881C22.1239 41.0036 21.0984 41.1567 21.8939 41.6163C22.0187 41.6556 22.1863 41.5244 22.3033 41.5681C22.6738 41.7607 22.7596 41.9795 22.354 42.2114C22.0576 42.2771 21.5507 42.0014 21.5429 42.5878C21.4376 43.7169 23.1924 42.7629 23.1534 43.5988Z" fill="#1E1E37"/>
<path d="M53.6394 43.5287C53.1286 43.218 53.1208 43.2355 53.4795 42.7497C54.3608 41.6644 51.83 41.765 53.4288 41.1611C54.3452 39.9619 51.9782 40.2727 51.5571 40.7497C51.9704 41.1304 52.2044 42.9292 52.0055 43.4499C51.288 41.9576 50.4964 38.3252 50.1299 42.1939C49.5371 41.9051 49.5566 40.5177 48.1528 40.6053C48.2308 41.4849 48.2893 42.2946 48.379 43.0998C48.3829 44.8723 49.5215 45.8307 49.4865 43.3931C50.1689 44.3209 50.3365 44.2683 51.1437 43.5462C51.3465 44.1502 51.6818 44.6578 52.4188 44.3515C52.7698 44.5353 53.2494 44.4084 53.6355 44.3821C53.9825 44.2508 53.924 43.7038 53.6394 43.5287Z" fill="#1E1E37"/>
<path d="M28.1447 40.1326C27.7392 40.2683 27.7119 40.5265 28.0472 40.7672C29.0728 41.0079 29.0533 41.9357 29.1547 42.8723C29.3379 43.6381 29.4822 44.3821 28.4645 44.6929C28.6633 45.1962 29.5251 44.9905 29.9268 44.9336C33.1945 44.1371 30.6248 39.1873 28.1447 40.1326ZM30.0282 43.1349C29.9151 42.6141 29.8449 42.0801 29.7357 41.4018C30.8548 42.0714 30.6755 44.1371 30.0282 43.1349Z" fill="#1E1E37"/>
<path d="M42.3192 41.52C42.1243 41.5812 42.0853 42.2508 41.98 42.6491C42.0151 43.2311 41.9488 43.5156 41.3717 43.4893C40.6308 43.6381 40.9232 41.5287 39.9445 40.4609C39.7495 40.4521 39.6637 40.6928 39.6637 40.8679C39.9094 41.7519 39.8119 43.7563 40.4787 44.2465C40.9817 44.4784 41.5355 44.5353 42.0112 44.2333C42.8067 43.7957 43.2434 45.1874 44.1832 44.0408C44.9787 43.0692 43.2785 41.2793 42.3192 41.52ZM43.2863 43.4281C43.103 43.5068 42.8691 43.2618 42.7911 43.0955C42.7326 42.8898 42.6585 42.3515 42.9705 42.3515C43.2902 42.6534 43.6958 43.2486 43.2863 43.4281Z" fill="#1E1E37"/>
<path d="M25.4151 42.0933C26.6122 39.4455 24.8692 40.3865 23.3562 40.4784C23.8592 41.6294 23.8085 42.3077 23.7929 43.6206C23.828 44.2465 24.7249 44.9861 25.263 44.7891C25.9103 44.5528 25.766 43.8263 25.9337 43.2968C26.1755 42.7847 25.7972 42.3165 25.4151 42.0933ZM24.3037 41.1305C24.4831 40.8766 24.7444 40.8985 25.0641 41.0342C25.2123 41.0954 25.2552 41.3055 25.1499 41.4368C25.0173 41.5987 24.9043 41.7475 24.7912 41.8876C24.7015 42.0014 24.5611 42.0407 24.4363 41.997L24.4051 41.9882C24.3661 41.695 24.1946 41.288 24.3037 41.1305ZM25.1538 43.5331C25.0797 43.6294 24.9861 43.7038 24.8887 43.7782C24.7054 43.9138 24.4519 43.8395 24.3622 43.6119C24.3466 43.5769 24.3388 43.5419 24.3388 43.5025C24.3388 43.2355 24.37 42.8504 24.5221 42.7278C24.6976 42.5878 24.9082 42.5003 25.1265 42.544C25.3683 42.5878 25.4931 42.8898 25.38 43.1305C25.3137 43.2836 25.2474 43.4193 25.1538 43.5331Z" fill="#1E1E37"/>
<path d="M47.2599 40.8898C46.7763 40.5265 46.1758 40.3558 45.6299 40.102C45.431 40.439 44.8344 40.2596 44.4951 40.4215C44.0506 40.5659 44.0857 40.8285 44.4405 41.0779C44.8929 41.2749 44.9826 41.5769 44.9787 42.1283C45.0567 42.8504 44.9904 44.6972 45.8326 44.8023C46.1407 44.8066 46.1875 44.474 46.1329 44.1852C45.9535 43.2399 46.1212 42.6184 47.0922 42.3515C47.6927 42.1852 47.7941 41.288 47.2599 40.8898ZM46.8972 41.695C46.8387 41.9051 46.519 41.9532 46.3552 41.9182C46.1758 41.8394 45.7586 41.5637 45.9535 41.2968C46.363 41.2049 47.0298 41.2267 46.8972 41.695Z" fill="#1E1E37"/>
<path d="M61.7031 35.3526C60.7926 35.159 60.1267 36.0839 59.3566 36.4108C58.6023 36.7249 58.415 36.6302 58.3629 35.9161C58.3317 35.5161 58.3265 35.1074 58.3837 34.7073C58.6387 32.9522 56.4327 31.7047 54.3256 32.5049C53.618 32.7716 53.0353 33.2663 52.2966 33.7136C52.0468 33.4641 51.693 33.1845 51.4589 32.849C51.0947 32.3285 50.6837 31.8295 51.2976 31.1627C51.7034 30.7196 51.3497 30.3497 50.6525 30.3712C49.6484 30.4013 48.6494 30.4701 47.6453 30.4959C46.7452 30.5175 46.7244 30.4271 46.9794 29.7388C47.4372 28.4999 47.8534 27.2481 48.2228 25.992C48.4309 25.2736 48.0615 24.7875 47.2395 24.4907C46.4227 24.1982 45.7359 24.4649 45.4238 25.1403C44.7006 26.7104 43.9306 28.2633 43.2126 29.8335C42.9785 30.3497 42.5987 30.5519 41.9275 30.5304C40.8818 30.4916 39.4718 29.8421 38.7227 30.5217C37.6665 31.4767 40.2314 31.9155 41.0951 32.5006C40.2158 33.2792 39.2013 33.7954 38.1295 34.204C37.4584 34.4578 37.1098 34.1782 37.1774 33.5588C37.1982 33.3824 37.2503 33.206 37.2659 33.0254C37.3127 32.3414 36.8757 31.8897 36.0432 31.7391C35.2941 31.6058 34.5865 31.9198 34.2899 32.4747C33.8633 33.2792 33.2962 34.0105 32.4846 34.5998C32.5366 34.2772 32.6563 33.989 32.8384 33.7309C33.0985 33.3652 33.4211 33.0254 33.676 32.6597C34.2171 31.8983 33.9101 31.3176 32.88 31.1197C32.1724 30.982 32.1412 30.8573 32.521 30.2335C32.5418 30.1991 32.5626 30.1604 32.5834 30.1217C32.8904 29.4549 32.6979 29.2484 31.8186 29.2958C31.6053 29.3087 31.3452 29.3646 31.1787 29.2915C30.9966 29.2054 30.7469 28.9559 30.7885 28.8484C31.033 28.2203 31.2984 27.6697 32.1984 27.3428C33.598 26.8352 34.9923 26.2157 36.1525 25.4113C37.2867 24.6241 37.5572 24.5466 38.3897 22.955C38.3897 22.955 38.5978 22.4861 38.6498 22.3699C38.8839 21.8752 39.2637 21.2859 38.9932 20.7998C38.962 20.7439 38.8891 20.7095 38.8111 20.7138C38.3428 20.7439 38.0567 21.187 37.7133 21.4494C36.5479 22.3484 35.3669 23.2217 33.9257 23.8368C33.3326 24.0906 33.0933 24.0218 32.8176 23.54C32.3649 22.7571 31.9175 22.6323 30.9134 22.7657C29.9457 22.8948 29.6387 23.5185 29.3005 24.1208C28.7282 25.1317 28.5617 25.1876 27.235 24.8262C27.0425 24.7746 26.8604 24.7144 26.6783 24.6413C25.7315 24.2713 25.6534 24.1251 25.9968 23.3034C26.1477 22.9464 26.3506 22.6022 26.5275 22.2495C27.1466 21.0321 27.7657 19.819 28.3796 18.5973C29.0352 17.2982 29.6647 15.9905 30.3307 14.6913C30.6272 14.1149 31.0122 13.5729 31.3192 13.005C31.9903 11.7575 32.6042 10.4885 33.3118 9.25392C34.1339 7.81713 35.0599 6.41907 35.8768 4.97798C36.267 4.294 36.5583 3.55841 36.7872 2.82281C37.1358 1.71296 36.0276 0.775177 34.6437 0.990264C34.4564 1.02038 34.2431 1.20965 34.1651 1.36452C33.9674 1.75597 33.8997 2.19045 33.676 2.569C32.9216 3.83372 32.1516 5.09413 31.3296 6.33303C30.6584 7.35255 29.9352 8.35055 29.1861 9.33135C27.9218 10.9875 26.028 12.0845 24.0458 13.0653C23.2237 13.4739 22.2768 13.788 21.3351 13.9428C18.4841 14.416 15.789 13.9514 13.2553 12.7814C12.0795 12.2393 11.4344 11.4306 11.091 10.381C10.8881 9.76152 10.5551 9.16358 10.2013 8.58715C9.98801 8.23871 9.44692 7.60205 8.97868 7.95909C8.69773 8.16988 8.83821 8.56564 8.90064 8.83665C9.30645 10.6391 10.1649 12.3125 11.7569 13.5815C13.6507 15.0828 16.0648 15.8012 18.6505 16.0851C21.1374 16.3561 23.4995 15.956 25.7471 15.0613C25.8563 15.0183 26.0644 14.9881 26.1112 15.0312C26.1997 15.1129 26.2465 15.2592 26.2361 15.3796C26.2257 15.5087 26.1373 15.6334 26.0748 15.7582C25.1539 17.6251 24.2279 19.4878 23.3018 21.3504C23.1873 21.5827 23.0416 21.8107 22.8543 22.1333C22.1156 21.5741 21.5016 21.0751 20.8409 20.6148C17.4955 18.279 13.812 17.5735 9.74348 19.7932C8.39077 20.5331 7.293 21.1525 6.07036 22.0473C5.18069 22.6969 4.93616 22.8474 4.50954 23.2088C4.35866 23.3378 3.39095 24.353 3.26089 24.4993C2.95393 24.8348 2.26717 25.6522 1.82493 26.1684C1.62723 26.4007 0.997702 27.5492 0.997702 27.5492C0.997702 27.5492 0.997702 27.5578 0.992499 27.5621C0.732363 27.9837 0.545065 28.3537 0.420199 29.0592C0.160063 30.4787 0.149658 30.9949 0.206888 32.0317C0.248509 32.8146 0.732363 35.1246 0.732363 35.1246C1.06534 36.5141 1.73129 37.5895 2.7094 38.7381C4.74887 41.1342 9.17118 42.0978 12.6414 40.5964C13.375 40.2781 14.0149 39.8135 14.7277 39.4522C16.0752 38.7682 17.0845 37.7874 17.9742 36.7593C19.3737 35.1418 20.7993 33.5201 21.7045 31.6488C21.8242 31.3993 21.9595 31.1541 22.1052 30.9132C22.2924 30.5992 22.5318 30.5691 22.9428 30.7626C23.4527 30.9992 23.9937 31.1928 24.5608 31.3262C25.1175 31.4552 25.3569 31.58 25.2112 32.0618C24.9354 32.9694 24.6961 33.8857 24.514 34.8063C24.3059 35.8645 24.8106 36.7851 25.5441 37.611C25.7158 37.8046 26.1581 37.9595 26.4338 37.9208C26.6315 37.8949 26.8292 37.5422 26.9281 37.3056C27.6304 35.615 28.286 33.9115 28.9988 32.2252C29.3213 31.4595 29.7584 31.3262 30.8821 31.5886C30.7313 31.808 30.6116 32.0231 30.4503 32.2123C29.3734 33.4857 29.108 34.7676 30.0029 36.2388C30.8093 37.5594 32.3597 37.9337 33.7124 36.9615C33.8945 36.8281 34.061 36.6775 34.2223 36.5313C34.7634 36.0452 35.3045 35.5505 35.8351 35.073C37.937 36.2001 38.244 36.2517 39.9349 35.7957C40.9598 35.5204 41.0118 35.5505 41.246 36.4668C41.4125 37.1206 41.8495 37.6153 42.5571 37.9294C43.197 38.2133 43.6184 38.0756 43.8629 37.5035C44.019 37.1464 44.1335 36.7808 44.2583 36.4151C44.6329 35.3182 44.9711 34.2083 45.3925 33.1243C45.6215 32.535 46.0065 32.4618 46.7348 32.763C46.3498 33.3437 45.9024 33.9029 45.5954 34.5095C45.4238 34.8536 45.4342 35.2838 45.4706 35.6666C45.4966 35.9678 45.7047 36.256 45.8088 36.5571C46.4331 38.3165 49.2478 39.1425 51.0531 38.067C51.5005 37.8003 51.8491 37.7444 52.3746 37.9337C53.2122 38.2391 53.6493 37.9896 53.7481 37.2239C53.8886 36.1656 54.6274 35.3612 55.3453 34.5482C55.439 34.4406 55.6419 34.3976 55.8188 34.3116C56.0269 36.5313 56.7761 38.3423 59.6844 38.7983C59.7312 38.7983 59.7833 38.7983 59.8301 38.794C59.8821 38.7897 59.9289 38.7768 59.9706 38.7553C60.007 38.7381 60.0434 38.7166 60.0798 38.6951C60.1683 38.6434 60.2619 38.5961 60.3504 38.5445C60.4908 38.4628 60.7146 38.4155 60.7458 38.2778C60.7458 38.2735 60.7406 38.2649 60.7354 38.2606C61.2088 37.3873 63.5136 35.7398 61.7031 35.3526ZM21.8762 24.2799C20.9397 25.992 20.0761 27.7342 19.0928 29.4291C18.3592 30.6938 17.5476 31.9413 16.6423 33.1286C15.9659 34.0148 15.1751 34.8665 14.2803 35.5978C13.1721 36.5055 11.9911 37.3959 10.6748 38.0713C9.57699 38.6305 8.43239 38.8198 7.28779 38.7166C5.85184 38.5875 4.55116 37.9552 3.71352 36.983C3.43778 36.6646 3.37014 36.4711 3.22447 36.0151C3.21926 36.0065 3.21926 35.9936 3.21406 35.985C2.66257 34.26 2.57413 32.4575 2.91751 30.6938C2.94872 30.5347 3.0944 30.1604 3.2921 29.7001C4.15055 27.6912 5.59171 25.8845 7.4855 24.4391C9.05672 23.2389 10.9973 21.8838 12.5269 21.1999C12.8391 21.0622 13.1617 20.9504 13.4738 20.8127C15.685 19.8534 17.6828 20.2793 19.5038 21.5096C20.279 22.0344 20.9554 22.6539 21.6629 23.2389C22.0167 23.5357 22.0999 23.867 21.8762 24.2799ZM27.131 27.3428C26.8917 27.9536 26.5951 28.5602 26.2257 29.1237C26.1008 29.313 25.7158 29.4721 25.4297 29.4893C24.8158 29.528 24.1914 29.4678 23.5723 29.442C23.1509 29.4248 22.9584 29.2054 23.0989 28.9C23.5775 27.8418 24.0926 26.8007 24.6285 25.6737C25.4921 26.0823 26.1893 26.3792 26.8292 26.7362C27.0217 26.8481 27.1986 27.1793 27.131 27.3428ZM47.9575 36.0624C48.2696 35.7484 48.5818 35.4386 48.894 35.1246C48.8524 35.615 48.7067 36.0323 47.9575 36.0624Z" fill="#1E1E37"/>
</svg>
