<svg width="71" height="72" viewBox="0 0 71 72" fill="none" xmlns="http://www.w3.org/2000/svg">
<circle cx="35.2513" cy="35.754" r="35.2513" fill="url(#paint0_linear_7_108)"/>
<g clip-path="url(#clip0_7_108)">
<path d="M39.05 5.71822C47.3477 5.70063 53.5447 8.97246 58.6388 14.707C61.7198 18.1723 63.5404 22.2357 64.2406 26.7916C65.466 34.9712 62.8927 41.7083 56.4331 46.9151C51.6541 50.7498 46.1048 53.107 40.433 55.1826C37.457 56.2732 34.4285 56.9593 31.2425 56.9417C22.8748 56.8889 15.645 51.1368 13.7544 42.9573C12.8966 39.2105 13.0717 35.5165 14.2096 31.8753C15.9601 26.2815 18.1308 20.8636 21.4569 15.9911C24.1527 12.0156 27.4963 8.77896 32.0653 7.01992C34.4811 6.08762 36.9844 5.64786 39.05 5.71822ZM23.8727 44.5932C23.8376 45.9125 24.6954 46.6513 25.7633 46.4226C26.7786 46.1939 27.8114 45.9476 28.7742 45.5606C29.562 45.2616 29.7896 45.5431 29.9121 46.2467C30.0872 47.1614 30.3672 48.0585 30.5773 48.9732C30.7349 49.6944 31.1025 50.2221 31.8377 50.398C32.5905 50.5739 33.1156 50.1694 33.5883 49.6592C34.2535 48.9556 34.9362 48.2696 35.5839 47.566C35.9165 47.2141 36.1791 47.1966 36.5117 47.566C37.2294 48.3399 37.9822 49.0787 38.7174 49.8175C39.8028 50.8906 41.0982 50.5739 41.5183 49.0963C41.8334 48.0233 42.1135 46.9503 42.3411 45.8773C42.4286 45.4551 42.5687 45.3847 42.9713 45.5079C44.0216 45.8421 45.0895 46.1411 46.1573 46.405C47.6103 46.7744 48.5731 45.7541 48.1705 44.3117C47.8904 43.3267 47.6278 42.3416 47.3302 41.3565C47.1726 40.8112 47.3302 40.5474 47.8729 40.4242C48.8707 40.1955 49.851 39.9493 50.8313 39.6678C52.3018 39.2457 52.6344 37.944 51.584 36.871C50.9363 36.2025 50.2886 35.5165 49.5884 34.9008C49.0107 34.3907 48.9057 34.0213 49.5534 33.4584C50.2886 32.8427 50.9363 32.1215 51.6191 31.4355C52.5994 30.4152 52.3018 29.1311 50.9538 28.7266C49.921 28.4099 48.8707 28.1637 47.8378 27.9174C47.3302 27.7943 47.1726 27.5304 47.3302 27.0379C47.6103 26.088 47.8554 25.1205 48.1705 24.1706C48.4155 23.467 48.3455 22.8338 47.8378 22.306C47.3302 21.7959 46.7 21.7959 46.0523 21.9894C45.0194 22.2884 43.9691 22.5523 42.9538 22.8689C42.5687 22.9921 42.4636 22.9041 42.3761 22.5171C42.131 21.4441 41.8334 20.3711 41.5358 19.2981C41.1507 17.8205 39.8378 17.4511 38.7524 18.5241C37.9822 19.2805 37.2469 20.0721 36.5117 20.8812C36.2141 21.2154 36.0041 21.2506 35.6714 20.8988C34.9187 20.0896 34.1309 19.2981 33.3432 18.5065C32.3454 17.5038 31.05 17.8029 30.6473 19.1749C30.3322 20.2304 30.0521 21.3034 29.8246 22.394C29.7195 22.9041 29.5445 23.0097 29.0543 22.8513C28.0565 22.5171 27.0587 22.2357 26.0434 21.9718C24.5379 21.5848 23.5576 22.5523 23.9427 24.0651C24.1878 25.0326 24.4153 26 24.7479 26.9323C24.958 27.5656 24.8355 27.8119 24.1878 27.9526C23.2775 28.1285 22.3847 28.4275 21.4744 28.6386C20.7742 28.7969 20.214 29.096 19.9864 29.8172C19.7413 30.556 20.0914 31.1013 20.5991 31.6114C21.2993 32.2798 21.947 33.001 22.6648 33.6343C23.1024 34.0389 23.1724 34.3027 22.6823 34.7249C21.947 35.3758 21.2643 36.1146 20.5641 36.8182C19.4262 37.9792 19.7763 39.316 21.3518 39.7206C22.2446 39.9493 23.1374 40.2483 24.0652 40.389C24.8705 40.5122 24.958 40.864 24.7304 41.5676C24.3803 42.623 24.1177 43.7312 23.8727 44.5932Z" fill="white"/>
<path d="M29.3505 4.90907C28.5277 5.38402 27.845 5.77101 27.1973 6.17559C23.101 8.76139 20.0375 12.3323 17.6392 16.4836C14.4357 21.9894 11.9149 27.7767 10.672 34.0213C8.79887 43.485 13.0002 53.3357 21.9456 57.7157C27.4774 60.4246 33.2367 60.5653 39.0311 58.7535C43.9852 57.2056 48.7992 55.253 53.2982 52.6145C57.6571 50.0638 61.4908 46.9151 64.2042 42.5527C64.9394 41.3565 65.5171 40.09 66.0948 38.718C65.7447 48.7445 57.2194 63.4326 40.3965 66.1767C22.8559 69.044 6.85574 56.8186 4.66754 39.4568C2.32178 20.7757 15.8536 7.2662 29.3505 4.90907Z" fill="white"/>
<path d="M35.9166 27.0555C37.352 26.9499 38.4899 27.1434 39.5927 27.6008C41.0632 28.234 41.8335 29.395 42.0785 30.943C42.1661 31.5235 42.026 31.8401 41.3608 31.7697C41.0107 31.7345 40.6606 31.7345 40.3105 31.7697C39.4877 31.8401 38.77 31.8401 38.6649 30.6967C38.6299 30.2745 38.1923 29.9755 37.7722 29.7996C36.7568 29.3774 35.724 29.395 34.6912 29.6765C34.061 29.8524 33.7108 30.3097 33.6758 30.9606C33.6408 31.5938 33.9909 32.016 34.5336 32.2623C35.619 32.7548 36.7918 32.7548 37.9297 33.0011C38.5949 33.1418 39.2251 33.3177 39.8553 33.564C41.3258 34.1268 42.3061 35.0943 42.4286 36.7654C42.5687 38.6476 41.886 40.1076 40.1529 40.8112C37.2645 41.9722 34.3586 42.0426 31.6452 40.2659C30.5773 39.5623 30.2272 38.3837 30.0172 37.17C29.9646 36.8006 30.1397 36.7127 30.4723 36.7127C30.8749 36.7302 31.2951 36.7302 31.6977 36.7127C32.6255 36.6775 33.5883 36.5367 33.7108 37.9088C33.7284 38.1903 34.0084 38.4013 34.2535 38.5772C35.1288 39.1929 37.5971 39.2105 38.4724 38.6124C39.2951 38.0319 39.2776 36.9061 38.4199 36.3257C37.8072 35.9035 37.0719 35.8155 36.3542 35.6748C35.2513 35.4461 34.1135 35.3582 33.0456 34.9536C31.1725 34.25 30.2973 32.9835 30.3323 31.0133C30.3673 29.3071 31.3476 28.023 33.1507 27.4249C33.6408 27.2666 34.166 27.1434 34.6737 27.0731C35.1638 27.0027 35.6715 27.0555 35.9166 27.0555Z" fill="white"/>
</g>
<defs>
<linearGradient id="paint0_linear_7_108" x1="35.2513" y1="0.502655" x2="35.2513" y2="71.0053" gradientUnits="userSpaceOnUse">
<stop stop-color="#4399FF"/>
<stop offset="1" stop-color="#2C5DCF"/>
</linearGradient>
<clipPath id="clip0_7_108">
<rect width="61.6898" height="61.6898" fill="white" transform="translate(4.4064 4.90907)"/>
</clipPath>
</defs>
</svg>
