<svg width="30" height="36" viewBox="0 0 30 36" fill="none" xmlns="http://www.w3.org/2000/svg">
<path d="M15.756 0.506132C17.6408 0.477356 19.5112 0.491744 21.3817 0.477356C21.4968 2.6787 22.2881 4.92321 23.8995 6.4771C25.511 8.07415 27.7843 8.80793 30 9.05252V14.8508C27.9281 14.7789 25.8419 14.3473 23.9571 13.4552C23.137 13.0811 22.3744 12.6063 21.6263 12.1171C21.6119 16.3184 21.6406 20.5197 21.5975 24.7065C21.4824 26.7208 20.8205 28.7207 19.6551 30.3753C17.7703 33.1378 14.5043 34.9363 11.1519 34.9939C9.09443 35.109 7.03696 34.5478 5.28164 33.5119C2.3753 31.7997 0.332218 28.6632 0.0300731 25.2964C0.00129734 24.577 -0.0130905 23.8576 0.0156852 23.1526C0.274667 20.4189 1.62713 17.8003 3.72775 16.0163C6.11614 13.9444 9.45413 12.9516 12.5763 13.5415C12.6051 15.6709 12.5187 17.8003 12.5187 19.9298C11.0943 19.4693 9.42535 19.5988 8.17361 20.4621C7.26717 21.052 6.57655 21.9584 6.21686 22.98C5.91471 23.7138 6.00104 24.5195 6.01543 25.2964C6.36074 27.656 8.63402 29.6416 11.0512 29.4257C12.6626 29.4114 14.2021 28.4761 15.0366 27.1093C15.31 26.6345 15.6121 26.1453 15.6265 25.5842C15.7704 23.0088 15.7128 20.4477 15.7272 17.8723C15.7416 12.074 15.7128 6.29005 15.756 0.506132Z" fill="white"/>
</svg>
