<svg width="26" height="21" viewBox="0 0 26 21" fill="none" xmlns="http://www.w3.org/2000/svg">
<path d="M25.451 2.99045C24.5151 3.40254 23.5235 3.67455 22.5083 3.79774C23.5772 3.15529 24.3775 2.14779 24.7615 0.961281C23.7708 1.53941 22.6729 1.96024 21.5042 2.19461C20.7331 1.37006 19.7113 0.823178 18.5975 0.638886C17.4838 0.454595 16.3403 0.643208 15.3447 1.17544C14.3491 1.70767 13.5571 2.55373 13.0917 3.58224C12.6263 4.61076 12.5135 5.76417 12.7708 6.86336C8.51042 6.66232 4.73646 4.61545 2.20833 1.52378C1.74874 2.30484 1.50902 3.19568 1.51458 4.10191C1.51458 5.88316 2.42083 7.44878 3.79375 8.36857C2.98006 8.34267 2.18435 8.12267 1.47292 7.72691V7.78941C1.47246 8.97315 1.88153 10.1206 2.63074 11.0371C3.37994 11.9535 4.42314 12.5826 5.58333 12.8175C4.83156 13.019 4.04418 13.0492 3.27917 12.9061C3.60846 13.9248 4.24757 14.8154 5.10731 15.4535C5.96705 16.0915 7.00453 16.4453 8.075 16.4654C6.26201 17.8883 4.02341 18.6606 1.71875 18.6582C1.3125 18.6582 0.907292 18.6342 0.5 18.5884C2.8497 20.0929 5.58178 20.8915 8.37187 20.8894C17.8021 20.8894 22.9531 13.0811 22.9531 6.3217C22.9531 6.10295 22.9531 5.8842 22.9375 5.66545C23.9437 4.94135 24.8117 4.04234 25.5 3.01128L25.451 2.99045Z" fill="white"/>
</svg>
