<svg width="30" height="31" viewBox="0 0 30 31" fill="none" xmlns="http://www.w3.org/2000/svg">
<path d="M12.5089 11.9164L18.8839 15.5392L12.5089 19.162V11.9164ZM30 3.7401V27.3115C30 29.0861 28.5603 30.5258 26.7857 30.5258H3.21429C1.43973 30.5258 0 29.0861 0 27.3115V3.7401C0 1.96555 1.43973 0.525818 3.21429 0.525818H26.7857C28.5603 0.525818 30 1.96555 30 3.7401ZM27.1875 15.5459C27.1875 15.5459 27.1875 11.5548 26.6786 9.63966C26.3973 8.58162 25.5737 7.75126 24.5223 7.47001C22.6272 6.95439 15 6.95439 15 6.95439C15 6.95439 7.37277 6.95439 5.47768 7.47001C4.42634 7.75126 3.60268 8.58162 3.32143 9.63966C2.8125 11.5481 2.8125 15.5459 2.8125 15.5459C2.8125 15.5459 2.8125 19.537 3.32143 21.4522C3.60268 22.5102 4.42634 23.3071 5.47768 23.5883C7.37277 24.0972 15 24.0972 15 24.0972C15 24.0972 22.6272 24.0972 24.5223 23.5816C25.5737 23.3004 26.3973 22.5035 26.6786 21.4455C27.1875 19.537 27.1875 15.5459 27.1875 15.5459Z" fill="white"/>
</svg>
