<svg width="26" height="26" viewBox="0 0 26 26" fill="none" xmlns="http://www.w3.org/2000/svg">
<path d="M13 0.808167C6.1 0.808167 0.5 6.40817 0.5 13.3082C0.5 20.2082 6.1 25.8082 13 25.8082C19.9 25.8082 25.5 20.2082 25.5 13.3082C25.5 6.40817 19.9 0.808167 13 0.808167ZM13 20.7082C8.9125 20.7082 5.6 17.3957 5.6 13.3082C5.6 9.22067 8.9125 5.90817 13 5.90817C17.0875 5.90817 20.4 9.22067 20.4 13.3082C20.4 17.3957 17.0875 20.7082 13 20.7082ZM13 6.82067C9.425 6.82067 6.5125 9.73317 6.5125 13.3082C6.5125 16.8832 9.425 19.7957 13 19.7957C16.575 19.7957 19.4875 16.8832 19.4875 13.3082C19.4875 9.73317 16.575 6.82067 13 6.82067V6.82067ZM10.5875 16.9957V9.62067L16.975 13.3082L10.5875 16.9957V16.9957Z" fill="white"/>
</svg>
