<?xml version="1.0" standalone="no"?>
<!DOCTYPE svg PUBLIC "-//W3C//DTD SVG 20010904//EN"
 "http://www.w3.org/TR/2001/REC-SVG-20010904/DTD/svg10.dtd">
<svg version="1.0" xmlns="http://www.w3.org/2000/svg"
 width="567.000000pt" height="567.000000pt" viewBox="0 0 567.000000 567.000000"
 preserveAspectRatio="xMidYMid meet">
<metadata>
Created by potrace 1.11, written by Peter Selinger 2001-2013
</metadata>
<g transform="translate(0.000000,567.000000) scale(0.100000,-0.100000)"
fill="#000000" stroke="none">
<path d="M3703 4251 c-112 -38 -164 -103 -171 -217 -4 -65 -1 -80 22 -128 31
-64 87 -110 160 -131 63 -19 100 -19 162 0 185 55 244 288 105 418 -78 73
-176 94 -278 58z m193 -66 c140 -69 133 -281 -11 -346 -105 -48 -246 4 -284
104 -28 73 1 186 57 226 69 48 162 54 238 16z"/>
<path d="M3690 4020 l0 -130 40 0 40 0 0 41 c0 38 1 40 28 37 22 -2 28 -9 32
-38 5 -32 8 -35 44 -38 l39 -3 -7 47 c-3 27 -10 52 -15 57 -5 5 -2 21 6 38 20
41 9 86 -27 104 -18 9 -57 15 -105 15 l-75 0 0 -130z m135 40 c0 -20 -6 -26
-27 -28 -25 -3 -28 0 -28 28 0 28 3 31 28 28 21 -2 27 -8 27 -28z"/>
<path d="M2190 2690 l0 -1070 220 0 220 0 0 1070 0 1070 -220 0 -220 0 0
-1070z"/>
<path d="M3020 2690 l0 -1070 220 0 220 0 0 1070 0 1070 -220 0 -220 0 0
-1070z"/>
</g>
</svg>
